{"asset":{"version":"2.0","generator":"babylon.js glTF exporter for 3ds max 2018 v1.3.33"},"scene":0,"scenes":[{"nodes":[0,1],"extensions":{}}],"nodes":[{"mesh":0,"translation":[0.0,0.0,0.0],"rotation":[0.0,0.0,0.0,1.0],"scale":[1.0,1.0,1.0],"name":"ChamferCyl001"},{"translation":[0.0,0.0,0.0],"rotation":[0.0,0.0,0.0,1.0],"scale":[1.0,1.0,1.0],"name":"Default light"}],"meshes":[{"primitives":[{"attributes":{"POSITION":1,"NORMAL":2,"TEXCOORD_0":3},"indices":0}],"name":"ChamferCyl001"}],"accessors":[{"bufferView":0,"componentType":5123,"count":28800,"type":"SCALAR","name":"accessorIndices"},{"bufferView":1,"componentType":5126,"count":28800,"max":[5.0,15.0,4.33012724],"min":[-5.0,0.0,-4.33012724],"type":"VEC3","name":"accessorPositions"},{"bufferView":1,"byteOffset":345600,"componentType":5126,"count":28800,"type":"VEC3","name":"accessorNormals"},{"bufferView":2,"componentType":5126,"count":28800,"type":"VEC2","name":"accessorUVs"}],"bufferViews":[{"buffer":0,"byteLength":57600,"name":"bufferViewScalar"},{"buffer":0,"byteOffset":57600,"byteLength":691200,"byteStride":12,"name":"bufferViewFloatVec3"},{"buffer":0,"byteOffset":748800,"byteLength":230400,"byteStride":8,"name":"bufferViewFloatVec2"}],"buffers":[{"uri":"hexagon-r.bin","byteLength":979200}]}