{
  "accessors": [
    {
      "bufferView": 3,
      "componentType": 5126,
      "count": 2190,
      "max": [
        48.603481292724609,
        16.515417098999023,
        17.781370162963867
      ],
      "min": [
        -48.603481292724609,
        -16.761285781860352,
        -42.1578369140625
      ],
      "type": "VEC3"
    },
    {
      "bufferView": 3,
      "byteOffset": 26280,
      "componentType": 5126,
      "count": 2190,
      "max": [
        1,
        1,
        1
      ],
      "min": [
        -1,
        -1,
        -1
      ],
      "type": "VEC3"
    },
    {
      "bufferView": 4,
      "componentType": 5126,
      "count": 2190,
      "max": [
        1,
        1,
        1,
        1
      ],
      "min": [
        -1,
        -1,
        -1,
        -1
      ],
      "type": "VEC4"
    },
    {
      "bufferView": 2,
      "componentType": 5126,
      "count": 2190,
      "max": [
        0.99588143825531006,
        0.99074125289916992
      ],
      "min": [
        0.00064100977033376694,
        0.0069402316585183144
      ],
      "type": "VEC2"
    },
    {
      "bufferView": 1,
      "componentType": 5125,
      "count": 7050,
      "max": [
        2189
      ],
      "min": [
        0
      ],
      "type": "SCALAR"
    },
    {
      "bufferView": 5,
      "componentType": 5126,
      "count": 8,
      "max": [
        1,
        3.3113723362291214e-20,
        0.00054078811081126332,
        0,
        0.00054078811081126332,
        1,
        0.010000000707805157,
        0,
        6.3108872258346359e-36,
        0.0099999997764825821,
        1,
        0,
        0.30582442879676819,
        0,
        0,
        1
      ],
      "min": [
        -0.0099999997764825821,
        -4.2785023829243799e-18,
        -0.00054078811081126332,
        0,
        -0.00054078811081126332,
        -8.0215932030114345e-06,
        0,
        0,
        -4.2785015557437674e-18,
        -0.010000000707805157,
        -8.0215932030114345e-06,
        0,
        -0.30582442879676819,
        -0.35300102829933167,
        -0.099427059292793274,
        1
      ],
      "type": "MAT4"
    },
    {
      "bufferView": 0,
      "componentType": 5123,
      "count": 2190,
      "max": [
        4,
        7,
        2,
        2
      ],
      "min": [
        1,
        2,
        2,
        2
      ],
      "type": "VEC4"
    },
    {
      "bufferView": 4,
      "byteOffset": 35040,
      "componentType": 5126,
      "count": 2190,
      "max": [
        1,
        0.5,
        0,
        0
      ],
      "min": [
        0.5,
        0,
        0,
        0
      ],
      "type": "VEC4"
    },
    {
      "bufferView": 6,
      "componentType": 5126,
      "count": 76,
      "max": [
        1.4583333730697632
      ],
      "min": [
        0
      ],
      "type": "SCALAR"
    },
    {
      "bufferView": 7,
      "componentType": 5126,
      "count": 76,
      "max": [
        6.0035941678486196e-20,
        1.7347234759768071e-18,
        0.13662980496883392
      ],
      "min": [
        -6.3515373527613937e-20,
        -1.7347234759768071e-18,
        0.13662980496883392
      ],
      "type": "VEC3"
    },
    {
      "bufferView": 6,
      "byteOffset": 304,
      "componentType": 5126,
      "count": 76,
      "max": [
        1.4583333730697632
      ],
      "min": [
        0
      ],
      "type": "SCALAR"
    },
    {
      "bufferView": 8,
      "componentType": 5126,
      "count": 76,
      "max": [
        0.70667612552642822,
        0.7071068286895752,
        0.70710676908493042,
        0.70667600631713867
      ],
      "min": [
        -0.49119740724563599,
        -0.47314709424972534,
        -0.47314703464508057,
        -0.49119734764099121
      ],
      "type": "VEC4"
    },
    {
      "bufferView": 6,
      "byteOffset": 608,
      "componentType": 5126,
      "count": 76,
      "max": [
        1.4583333730697632
      ],
      "min": [
        0
      ],
      "type": "SCALAR"
    },
    {
      "bufferView": 8,
      "byteOffset": 1216,
      "componentType": 5126,
      "count": 76,
      "max": [
        -0.5517350435256958,
        -0.014929513446986675,
        0.022556032985448837,
        0.83358073234558105
      ],
      "min": [
        -0.83358073234558105,
        -0.022556032985448837,
        0.014929513446986675,
        0.5517350435256958
      ],
      "type": "VEC4"
    },
    {
      "bufferView": 6,
      "byteOffset": 912,
      "componentType": 5126,
      "count": 76,
      "max": [
        1.4583333730697632
      ],
      "min": [
        0
      ],
      "type": "SCALAR"
    },
    {
      "bufferView": 8,
      "byteOffset": 2432,
      "componentType": 5126,
      "count": 76,
      "max": [
        -0.55173510313034058,
        0.022556031122803688,
        -0.014929511584341526,
        0.83358067274093628
      ],
      "min": [
        -0.83358073234558105,
        0.014929513446986675,
        -0.022556031122803688,
        0.5517350435256958
      ],
      "type": "VEC4"
    },
    {
      "bufferView": 6,
      "byteOffset": 1216,
      "componentType": 5126,
      "count": 76,
      "max": [
        1.4583333730697632
      ],
      "min": [
        0
      ],
      "type": "SCALAR"
    },
    {
      "bufferView": 8,
      "byteOffset": 3648,
      "componentType": 5126,
      "count": 76,
      "max": [
        -0.52991926670074463,
        2.5688464086158392e-18,
        4.5391168018474808e-18,
        0.84804809093475342
      ],
      "min": [
        -0.70710670948028564,
        -3.2950108975832786e-18,
        -2.7432717096382116e-18,
        0.7071068286895752
      ],
      "type": "VEC4"
    },
    {
      "bufferView": 6,
      "byteOffset": 1520,
      "componentType": 5126,
      "count": 76,
      "max": [
        1.4583333730697632
      ],
      "min": [
        0
      ],
      "type": "SCALAR"
    },
    {
      "bufferView": 8,
      "byteOffset": 4864,
      "componentType": 5126,
      "count": 76,
      "max": [
        -0.52991926670074463,
        2.5688464086158392e-18,
        4.5391168018474808e-18,
        0.84804809093475342
      ],
      "min": [
        -0.70710670948028564,
        -3.2950108975832786e-18,
        -2.7432717096382116e-18,
        0.7071068286895752
      ],
      "type": "VEC4"
    },
    {
      "bufferView": 6,
      "byteOffset": 1824,
      "componentType": 5126,
      "count": 76,
      "max": [
        1.4583333730697632
      ],
      "min": [
        0
      ],
      "type": "SCALAR"
    },
    {
      "bufferView": 7,
      "byteOffset": 912,
      "componentType": 5126,
      "count": 76,
      "max": [
        4.2867084281912122e-19,
        0.084907487034797668,
        -0.35306927561759949
      ],
      "min": [
        -9.4956095020448243e-19,
        0.084907487034797668,
        -0.35306927561759949
      ],
      "type": "VEC3"
    },
    {
      "bufferView": 6,
      "byteOffset": 2128,
      "componentType": 5126,
      "count": 76,
      "max": [
        1.4583333730697632
      ],
      "min": [
        0
      ],
      "type": "SCALAR"
    },
    {
      "bufferView": 8,
      "byteOffset": 6080,
      "componentType": 5126,
      "count": 76,
      "max": [
        -0.70671600103378296,
        0.030855977907776833,
        0.030831148847937584,
        0.70682305097579956
      ],
      "min": [
        -0.70739036798477173,
        -0.030855534598231316,
        -0.030831584706902504,
        0.70615142583847046
      ],
      "type": "VEC4"
    },
    {
      "bufferView": 6,
      "byteOffset": 2432,
      "componentType": 5126,
      "count": 76,
      "max": [
        1.4583333730697632
      ],
      "min": [
        0
      ],
      "type": "SCALAR"
    },
    {
      "bufferView": 8,
      "byteOffset": 7296,
      "componentType": 5126,
      "count": 76,
      "max": [
        0.7071068286895752,
        0.010756295174360275,
        0.010404143482446671,
        0.73116976022720337
      ],
      "min": [
        0.68219137191772461,
        -0.010773804038763046,
        -0.010422239080071449,
        0.70710670948028564
      ],
      "type": "VEC4"
    }
  ],
  "animations": [
    {
      "channels": [
        {
          "sampler": 0,
          "target": {
            "node": 9,
            "path": "translation"
          }
        },
        {
          "sampler": 1,
          "target": {
            "node": 9,
            "path": "rotation"
          }
        },
        {
          "sampler": 2,
          "target": {
            "node": 10,
            "path": "rotation"
          }
        },
        {
          "sampler": 3,
          "target": {
            "node": 11,
            "path": "rotation"
          }
        },
        {
          "sampler": 4,
          "target": {
            "node": 12,
            "path": "rotation"
          }
        },
        {
          "sampler": 5,
          "target": {
            "node": 13,
            "path": "rotation"
          }
        },
        {
          "sampler": 6,
          "target": {
            "node": 14,
            "path": "translation"
          }
        },
        {
          "sampler": 7,
          "target": {
            "node": 14,
            "path": "rotation"
          }
        },
        {
          "sampler": 8,
          "target": {
            "node": 8,
            "path": "rotation"
          }
        }
      ],
      "name": "Aeroplane_fly",
      "samplers": [
        {
          "input": 8,
          "interpolation": "LINEAR",
          "output": 9
        },
        {
          "input": 10,
          "interpolation": "LINEAR",
          "output": 11
        },
        {
          "input": 12,
          "interpolation": "LINEAR",
          "output": 13
        },
        {
          "input": 14,
          "interpolation": "LINEAR",
          "output": 15
        },
        {
          "input": 16,
          "interpolation": "LINEAR",
          "output": 17
        },
        {
          "input": 18,
          "interpolation": "LINEAR",
          "output": 19
        },
        {
          "input": 20,
          "interpolation": "LINEAR",
          "output": 21
        },
        {
          "input": 22,
          "interpolation": "LINEAR",
          "output": 23
        },
        {
          "input": 24,
          "interpolation": "LINEAR",
          "output": 25
        }
      ]
    }
  ],
  "asset": {
    "extras": {
      "author": "Ra_in_coat (https://sketchfab.com/ra_in_coat)",
      "license": "SKETCHFAB Standard (https://sketchfab.com/licenses)",
      "source": "https://sketchfab.com/models/0eb8f6754c7e40a1afb88072d1fa650d",
      "title": "Toy aeroplane"
    },
    "generator": "Sketchfab-3.33.1",
    "version": "2.0"
  },
  "bufferViews": [
    {
      "buffer": 0,
      "byteLength": 17520,
      "byteOffset": 0,
      "byteStride": 8,
      "name": "shortBufferViews",
      "target": 34962
    },
    {
      "buffer": 0,
      "byteLength": 28200,
      "byteOffset": 17520,
      "name": "floatBufferViews",
      "target": 34963
    },
    {
      "buffer": 0,
      "byteLength": 17520,
      "byteOffset": 45720,
      "byteStride": 8,
      "name": "floatBufferViews",
      "target": 34962
    },
    {
      "buffer": 0,
      "byteLength": 52560,
      "byteOffset": 63240,
      "byteStride": 12,
      "name": "floatBufferViews",
      "target": 34962
    },
    {
      "buffer": 0,
      "byteLength": 70080,
      "byteOffset": 115800,
      "byteStride": 16,
      "name": "floatBufferViews",
      "target": 34962
    },
    {
      "buffer": 0,
      "byteLength": 512,
      "byteOffset": 185880,
      "byteStride": 64,
      "name": "floatBufferViews"
    },
    {
      "buffer": 0,
      "byteLength": 2736,
      "byteOffset": 186392,
      "name": "floatBufferViews"
    },
    {
      "buffer": 0,
      "byteLength": 1824,
      "byteOffset": 189128,
      "byteStride": 12,
      "name": "floatBufferViews"
    },
    {
      "buffer": 0,
      "byteLength": 8512,
      "byteOffset": 190952,
      "byteStride": 16,
      "name": "floatBufferViews"
    }
  ],
  "buffers": [
    {
      "byteLength": 199464,
      "uri": "scene.bin"
    }
  ],
  "images": [
    {
      "uri": "textures/Aeroplane_color_3_baseColor.png"
    }
  ],
  "materials": [
    {
      "name": "Aeroplane_color_3",
      "pbrMetallicRoughness": {
        "baseColorFactor": [
          1,
          1,
          1,
          1
        ],
        "baseColorTexture": {
          "index": 0,
          "texCoord": 0
        },
        "metallicFactor": 0,
        "roughnessFactor": 0.59999999999999998
      }
    }
  ],
  "meshes": [
    {
      "name": "Aeroplane_Aeroplane_color_3_0",
      "primitives": [
        {
          "attributes": {
            "JOINTS_0": 6,
            "NORMAL": 1,
            "POSITION": 0,
            "TANGENT": 2,
            "TEXCOORD_0": 3,
            "WEIGHTS_0": 7
          },
          "indices": 4,
          "material": 0,
          "mode": 4
        }
      ]
    }
  ],
  "nodes": [
    {
      "children": [
        1
      ],
      "name": "RootNode (gltf orientation matrix)",
      "rotation": [
        -0.70710678118654746,
        -0,
        -0,
        0.70710678118654757
      ]
    },
    {
      "children": [
        2
      ],
      "name": "RootNode (model correction matrix)"
    },
    {
      "children": [
        3
      ],
      "matrix": [
        1,
        0,
        0,
        0,
        0,
        0,
        1,
        0,
        0,
        -1,
        0,
        0,
        0,
        0,
        0,
        1
      ],
      "name": "98a210587b1748d2bed10f5a8e291970.fbx"
    },
    {
      "children": [
        4
      ],
      "name": ""
    },
    {
      "children": [
        5,
        17
      ],
      "name": "RootNode"
    },
    {
      "children": [
        6
      ],
      "name": "Armature",
      "rotation": [
        -0.7071068286895752,
        0,
        0,
        0.70710670948028564
      ],
      "scale": [
        100,
        100,
        100
      ]
    },
    {
      "children": [
        7,
        16,
        15
      ],
      "name": ""
    },
    {
      "children": [
        8
      ],
      "name": "_rootJoint"
    },
    {
      "children": [
        9,
        10,
        11,
        12,
        13,
        14
      ],
      "name": "ROOT_00",
      "rotation": [
        0.7071068286895752,
        -3.2832928043013965e-10,
        3.2832933594129088e-10,
        0.70710670948028564
      ]
    },
    {
      "name": "PROPELLER_01",
      "rotation": [
        0.24184487760066986,
        0.66446304321289062,
        0.66446304321289062,
        0.24184487760066986
      ],
      "translation": [
        0,
        -2.8698592549372254e-42,
        0.13662980496883392
      ]
    },
    {
      "name": "Eleron_L_02",
      "rotation": [
        -0.70684808492660522,
        -0.019126748666167259,
        0.019126748666167259,
        0.70684802532196045
      ],
      "scale": [
        0.99999994039535522,
        1,
        0.99999994039535522
      ],
      "translation": [
        0.30000001192092896,
        0.11582018435001373,
        -0.041593629866838455
      ]
    },
    {
      "name": "Eleron_R_03",
      "rotation": [
        -0.70684808492660522,
        0.019126748666167259,
        -0.01912674680352211,
        0.70684802532196045
      ],
      "scale": [
        0.99999994039535522,
        1,
        0.99999994039535522
      ],
      "translation": [
        -0.30000001192092896,
        0.11582018435001373,
        -0.041593629866838455
      ]
    },
    {
      "name": "HRule_L_04",
      "rotation": [
        -0.70710670948028564,
        7.515163664173994e-42,
        -7.515163664173994e-42,
        0.7071068286895752
      ],
      "scale": [
        1,
        0.99999994039535522,
        0.99999994039535522
      ],
      "translation": [
        0.077403172850608826,
        0.056012943387031555,
        -0.34750327467918396
      ]
    },
    {
      "name": "HRule_R_05",
      "rotation": [
        -0.70710670948028564,
        7.515163664173994e-42,
        -7.515163664173994e-42,
        0.7071068286895752
      ],
      "scale": [
        1,
        0.99999994039535522,
        0.99999994039535522
      ],
      "translation": [
        -0.077403172850608826,
        0.056012943387031555,
        -0.34750327467918396
      ]
    },
    {
      "name": "Rule_06",
      "rotation": [
        -0.70739036798477173,
        7.5193675595669684e-42,
        -7.5123610672453443e-42,
        0.70682305097579956
      ],
      "translation": [
        -7.4978948740203018e-27,
        0.084907487034797668,
        -0.35306927561759949
      ]
    },
    {
      "matrix": [
        100,
        0,
        0,
        0,
        0,
        6.1232339957367661e-15,
        -100,
        0,
        0,
        100,
        6.1232339957367661e-15,
        0,
        0,
        0,
        0,
        1
      ],
      "name": ""
    },
    {
      "mesh": 0,
      "name": "",
      "skin": 0
    },
    {
      "name": "Aeroplane",
      "rotation": [
        -0.7071068286895752,
        0,
        0,
        0.70710670948028564
      ],
      "scale": [
        100,
        100,
        100
      ]
    }
  ],
  "samplers": [
    {
      "magFilter": 9729,
      "minFilter": 9987,
      "wrapS": 10497,
      "wrapT": 10497
    }
  ],
  "scene": 0,
  "scenes": [
    {
      "name": "OSG_Scene",
      "nodes": [
        0
      ]
    }
  ],
  "skins": [
    {
      "inverseBindMatrices": 5,
      "joints": [
        7,
        8,
        9,
        10,
        11,
        12,
        13,
        14
      ],
      "skeleton": 7
    }
  ],
  "textures": [
    {
      "sampler": 0,
      "source": 0
    }
  ]
}
