{"asset":{"version":"2.0","generator":"Mesh@Cocos glTF exporter for 3ds max v1.0"},"scene":0,"scenes":[{"nodes":[0]}],"nodes":[{"name":"cocosfinish_02","mesh":0,"translation":[0.0,0.0,0.0],"rotation":[-0.0,-0.0,-0.0,1.0],"scale":[1.0,1.0,1.0]}],"meshes":[{"name":"cocosfinish_02","primitives":[{"attributes":{"POSITION":0,"NORMAL":1,"TEXCOORD_0":2,"JOINTS_0":3,"WEIGHTS_0":4},"indices":5,"mode":4}]}],"accessors":[{"name":"accessorPosition","bufferView":0,"componentType":5126,"count":161,"type":"VEC3","max":[0.8866991400718689,4.560068130493164,0.8987413048744202],"min":[-0.8866992592811585,2.8476545810699465,-0.8987371921539307]},{"name":"accessorNormal","bufferView":1,"componentType":5126,"count":161,"type":"VEC3"},{"name":"accessorUV0","bufferView":2,"componentType":5126,"count":161,"type":"VEC2"},{"name":"accessorJoints","bufferView":3,"componentType":5121,"count":161,"type":"VEC4"},{"name":"accessorWeights","bufferView":4,"componentType":5126,"count":161,"type":"VEC4"},{"name":"accessorIndices","bufferView":5,"componentType":5123,"count":912,"type":"SCALAR"}],"bufferViews":[{"buffer":0,"name":"bufferViewPositionVec3F","byteLength":1932,"byteStride":12},{"buffer":0,"name":"bufferViewNormalVec3F","byteOffset":1932,"byteLength":1932,"byteStride":12},{"buffer":0,"name":"bufferViewUV0Vec2F","byteOffset":3864,"byteLength":1288,"byteStride":8},{"buffer":0,"name":"bufferViewJointsVec4UI8","byteOffset":5152,"byteLength":644,"byteStride":4},{"buffer":0,"name":"bufferViewWeightsVec4F","byteOffset":5796,"byteLength":2576,"byteStride":16},{"buffer":0,"name":"bufferViewIndexScalar","byteOffset":8372,"byteLength":1824}],"buffers":[{"name":"cocos_mesh_helmet","uri":"cocosfinish_02.bin","byteLength":10196}]}