# 3ds Max Wavefront OBJ Exporter v0.97b - (c)2007 guruware
# File Created: 23.07.2014 10:04:09

#
# object Crate_05
#

v  -0.0826 0.0125 0.0000
v  -0.0675 0.0125 -0.0487
v  -0.0675 0.0125 0.0487
v  -0.0275 0.0125 0.0793
v  -0.0275 0.0125 -0.0793
v  0.0275 0.0125 -0.0793
v  0.0275 0.0125 0.0793
v  0.0677 0.0125 -0.0497
v  0.0677 0.0125 0.0497
v  -0.0680 0.0190 0.0491
v  -0.0680 0.0190 -0.0491
v  -0.0833 0.0190 -0.0000
v  -0.0278 0.0190 0.0800
v  0.0278 0.0190 0.0800
v  0.0278 0.0190 -0.0800
v  -0.0278 0.0190 -0.0799
v  0.0682 0.0190 0.0501
v  0.0682 0.0190 -0.0501
v  0.0833 0.0190 -0.0000
v  0.0826 0.0125 -0.0000
v  0.0263 -0.0005 -0.0845
v  0.0263 -0.0005 -0.0780
v  -0.0263 -0.0005 -0.0780
v  -0.0263 -0.0005 -0.0845
v  0.0329 0.1945 -0.1056
v  -0.0329 0.1945 -0.1056
v  -0.0329 0.1945 -0.0975
v  0.0329 0.1945 -0.0975
v  -0.0284 -0.0005 -0.0838
v  -0.0245 -0.0005 -0.0786
v  -0.0671 -0.0005 -0.0476
v  -0.0710 -0.0005 -0.0529
v  -0.0355 0.1945 -0.1048
v  -0.0887 0.1945 -0.0661
v  -0.0839 0.1945 -0.0595
v  -0.0307 0.1945 -0.0982
v  -0.0722 -0.0005 -0.0511
v  -0.0660 -0.0005 -0.0491
v  -0.0823 -0.0005 0.0009
v  -0.0885 -0.0005 -0.0011
v  -0.0903 0.1945 -0.0639
v  -0.1106 0.1945 -0.0013
v  -0.1029 0.1945 0.0012
v  -0.0826 0.1945 -0.0614
v  -0.0885 -0.0005 0.0011
v  -0.0823 -0.0005 -0.0009
v  -0.0660 -0.0005 0.0491
v  -0.0722 -0.0005 0.0511
v  -0.1106 0.1945 0.0013
v  -0.0903 0.1945 0.0639
v  -0.0826 0.1945 0.0614
v  -0.1029 0.1945 -0.0012
v  -0.0710 -0.0005 0.0529
v  -0.0671 -0.0005 0.0476
v  -0.0245 -0.0005 0.0786
v  -0.0284 -0.0005 0.0838
v  -0.0887 0.1945 0.0661
v  -0.0355 0.1945 0.1048
v  -0.0307 0.1945 0.0982
v  -0.0839 0.1945 0.0595
v  -0.0263 -0.0005 0.0845
v  -0.0263 -0.0005 0.0780
v  0.0263 -0.0005 0.0780
v  0.0263 -0.0005 0.0845
v  -0.0329 0.1945 0.1056
v  0.0329 0.1945 0.1056
v  0.0329 0.1945 0.0975
v  -0.0329 0.1945 0.0975
v  0.0284 -0.0005 0.0838
v  0.0245 -0.0005 0.0786
v  0.0671 -0.0005 0.0476
v  0.0710 -0.0005 0.0529
v  0.0355 0.1945 0.1048
v  0.0887 0.1945 0.0661
v  0.0839 0.1945 0.0595
v  0.0307 0.1945 0.0982
v  0.0722 -0.0005 0.0511
v  0.0660 -0.0005 0.0491
v  0.0823 -0.0005 -0.0009
v  0.0885 -0.0005 0.0011
v  0.0903 0.1945 0.0639
v  0.1106 0.1945 0.0013
v  0.1029 0.1945 -0.0012
v  0.0826 0.1945 0.0614
v  0.0885 -0.0005 -0.0011
v  0.0823 -0.0005 0.0009
v  0.0660 -0.0005 -0.0491
v  0.0722 -0.0005 -0.0511
v  0.1106 0.1945 -0.0013
v  0.0903 0.1945 -0.0639
v  0.0826 0.1945 -0.0614
v  0.1029 0.1945 0.0012
v  0.0710 -0.0005 -0.0529
v  0.0671 -0.0005 -0.0476
v  0.0245 -0.0005 -0.0786
v  0.0284 -0.0005 -0.0838
v  0.0887 0.1945 -0.0661
v  0.0355 0.1945 -0.1048
v  0.0307 0.1945 -0.0982
v  0.0839 0.1945 -0.0595
v  -0.1119 0.1782 -0.0000
v  -0.1100 0.1620 -0.0000
v  -0.0899 0.1620 0.0647
v  -0.0914 0.1782 0.0658
v  0.0370 0.1782 0.1073
v  -0.0371 0.1782 0.1072
v  -0.0365 0.1620 0.1054
v  0.0364 0.1620 0.1054
v  0.0900 0.1620 0.0659
v  0.0916 0.1782 0.0670
v  0.1119 0.1782 -0.0000
v  0.1100 0.1620 -0.0000
v  0.0900 0.1620 -0.0659
v  0.0916 0.1782 -0.0670
v  -0.0371 0.1782 -0.1072
v  0.0370 0.1782 -0.1073
v  0.0364 0.1620 -0.1054
v  -0.0365 0.1620 -0.1054
v  -0.0899 0.1620 -0.0647
v  -0.0914 0.1782 -0.0658
v  -0.0867 0.1620 0.0624
v  -0.1060 0.1620 0.0000
v  -0.1079 0.1782 0.0000
v  -0.0882 0.1782 0.0635
v  -0.0352 0.1620 0.1017
v  -0.0359 0.1782 0.1034
v  0.0358 0.1782 0.1035
v  0.0352 0.1620 0.1017
v  0.0868 0.1620 0.0636
v  0.0883 0.1782 0.0647
v  0.0868 0.1620 -0.0636
v  0.1060 0.1620 0.0000
v  0.1079 0.1782 0.0000
v  0.0883 0.1782 -0.0647
v  0.0352 0.1620 -0.1017
v  0.0358 0.1782 -0.1035
v  -0.0359 0.1782 -0.1034
v  -0.0352 0.1620 -0.1017
v  -0.0867 0.1620 -0.0624
v  -0.0882 0.1782 -0.0635
v  -0.0946 0.0304 -0.0000
v  -0.0930 0.0141 -0.0000
v  -0.0760 0.0141 0.0547
v  -0.0773 0.0304 0.0556
v  0.0313 0.0304 0.0907
v  -0.0314 0.0304 0.0907
v  -0.0309 0.0141 0.0892
v  0.0308 0.0141 0.0892
v  0.0762 0.0141 0.0557
v  0.0775 0.0304 0.0567
v  0.0946 0.0304 -0.0000
v  0.0930 0.0141 -0.0000
v  0.0762 0.0141 -0.0557
v  0.0775 0.0304 -0.0567
v  -0.0314 0.0304 -0.0907
v  0.0313 0.0304 -0.0907
v  0.0308 0.0141 -0.0892
v  -0.0309 0.0141 -0.0892
v  -0.0760 0.0141 -0.0547
v  -0.0773 0.0304 -0.0556
v  -0.0733 0.0141 0.0528
v  -0.0897 0.0141 0.0000
v  -0.0912 0.0304 0.0000
v  -0.0746 0.0304 0.0537
v  -0.0298 0.0141 0.0860
v  -0.0303 0.0304 0.0875
v  0.0303 0.0304 0.0875
v  0.0298 0.0141 0.0860
v  0.0735 0.0141 0.0538
v  0.0747 0.0304 0.0547
v  0.0735 0.0141 -0.0538
v  0.0897 0.0141 0.0000
v  0.0912 0.0304 0.0000
v  0.0747 0.0304 -0.0547
v  0.0298 0.0141 -0.0860
v  0.0303 0.0304 -0.0875
v  -0.0303 0.0304 -0.0875
v  -0.0298 0.0141 -0.0860
v  -0.0733 0.0141 -0.0528
v  -0.0746 0.0304 -0.0537
# 180 vertices

vn 0.0000 -1.0000 -0.0000
vn -0.0000 -1.0000 -0.0000
vn 0.0000 1.0000 -0.0000
vn 0.0000 1.0000 0.0000
vn -0.0000 1.0000 0.0000
vn -0.8158 -0.1044 0.5688
vn -0.8154 -0.1044 0.5694
vn -0.9505 -0.0990 0.2946
vn -0.3187 -0.1053 0.9420
vn 0.3104 -0.1053 0.9448
vn 0.3110 -0.1053 0.9446
vn -0.3191 -0.1053 0.9419
vn 0.8132 -0.1053 0.5723
vn 0.8128 -0.1053 0.5730
vn 0.8132 -0.1053 -0.5723
vn 0.8128 -0.1053 -0.5730
vn 0.9529 -0.0993 -0.2865
vn 0.3104 -0.1053 -0.9448
vn -0.3187 -0.1053 -0.9420
vn -0.3191 -0.1053 -0.9419
vn 0.3110 -0.1053 -0.9446
vn -0.8158 -0.1044 -0.5688
vn -0.8154 -0.1044 -0.5694
vn -0.9505 -0.0990 -0.2946
vn 0.9529 -0.0993 0.2865
vn 0.0000 0.0995 0.9950
vn 0.9994 -0.0337 -0.0000
vn 0.0000 -0.1077 -0.9942
vn -0.9994 -0.0337 -0.0000
vn 0.5849 0.0995 0.8050
vn 0.8086 -0.0337 -0.5874
vn 0.8086 -0.0337 -0.5875
vn -0.5844 -0.1077 -0.8043
vn -0.8086 -0.0337 0.5875
vn -0.8086 -0.0337 0.5874
vn 0.9463 0.0995 0.3075
vn 0.3088 -0.0337 -0.9505
vn -0.9455 -0.1077 -0.3072
vn -0.3088 -0.0337 0.9505
vn 0.9463 0.0995 -0.3075
vn -0.3088 -0.0337 -0.9505
vn -0.9455 -0.1077 0.3072
vn 0.3088 -0.0337 0.9505
vn -0.0000 1.0000 -0.0000
vn 0.5849 0.0995 -0.8050
vn -0.8086 -0.0337 -0.5875
vn -0.5844 -0.1077 0.8043
vn 0.8086 -0.0337 0.5875
vn -0.0000 0.0995 -0.9950
vn 0.0000 0.0995 -0.9950
vn 0.0000 -0.1077 0.9942
vn -0.5849 0.0995 -0.8050
vn 0.5844 -0.1077 0.8043
vn -0.9463 0.0995 -0.3075
vn 0.9455 -0.1077 0.3072
vn -0.9463 0.0995 0.3075
vn 0.9455 -0.1077 -0.3072
vn -0.5849 0.0995 0.8050
vn 0.8086 -0.0337 0.5874
vn 0.5844 -0.1077 -0.8043
vn -0.8086 -0.0337 -0.5874
vn -0.9492 -0.1107 0.2947
vn -0.8143 -0.1167 0.5686
vn -0.8139 -0.1167 0.5691
vn 0.3105 -0.1175 0.9433
vn -0.3184 -0.1175 0.9407
vn -0.3180 -0.1175 0.9408
vn 0.3098 -0.1175 0.9435
vn 0.8117 -0.1175 0.5721
vn 0.8113 -0.1175 0.5727
vn 0.9513 -0.1110 -0.2876
vn 0.8117 -0.1175 -0.5721
vn 0.8113 -0.1175 -0.5727
vn -0.3184 -0.1175 -0.9407
vn 0.3105 -0.1175 -0.9433
vn 0.3098 -0.1175 -0.9435
vn -0.3180 -0.1175 -0.9408
vn -0.8143 -0.1167 -0.5686
vn -0.8139 -0.1167 -0.5691
vn -0.9492 -0.1107 -0.2947
vn 0.9513 -0.1110 0.2876
vn 0.8148 0.1126 -0.5687
vn 0.9496 0.1068 -0.2947
vn 0.8144 0.1126 -0.5692
vn 0.3183 0.1134 -0.9412
vn 0.3186 0.1134 -0.9411
vn -0.3107 0.1134 -0.9437
vn -0.3100 0.1134 -0.9439
vn -0.8122 0.1134 -0.5722
vn -0.8118 0.1134 -0.5728
vn -0.8122 0.1134 0.5722
vn -0.9518 0.1071 0.2873
vn -0.8118 0.1134 0.5728
vn -0.3100 0.1134 0.9439
vn -0.3107 0.1134 0.9437
vn 0.3186 0.1134 0.9411
vn 0.3183 0.1134 0.9412
vn 0.8148 0.1126 0.5687
vn 0.8144 0.1126 0.5692
vn 0.9496 0.1068 0.2947
vn -0.9518 0.1071 -0.2873
vn -0.0000 -1.0000 0.0000
vn 0.0000 -1.0000 0.0000
vn -0.9508 -0.0938 0.2952
vn -0.8158 -0.0989 0.5698
vn -0.8155 -0.0989 0.5702
vn 0.3110 -0.0996 0.9452
vn -0.3190 -0.0996 0.9425
vn -0.3187 -0.0996 0.9426
vn 0.3105 -0.0996 0.9453
vn 0.8133 -0.0996 0.5733
vn 0.8129 -0.0996 0.5738
vn 0.9530 -0.0941 -0.2881
vn 0.8133 -0.0996 -0.5733
vn 0.8129 -0.0996 -0.5738
vn -0.3190 -0.0996 -0.9425
vn 0.3110 -0.0996 -0.9452
vn 0.3105 -0.0996 -0.9453
vn -0.3187 -0.0996 -0.9426
vn -0.8158 -0.0989 -0.5698
vn -0.8155 -0.0989 -0.5702
vn -0.9508 -0.0938 -0.2952
vn 0.9530 -0.0941 0.2881
vn 0.8162 0.0954 -0.5698
vn 0.9512 0.0905 -0.2951
vn 0.8159 0.0954 -0.5702
vn 0.3189 0.0962 -0.9429
vn 0.3192 0.0962 -0.9428
vn -0.3112 0.0961 -0.9455
vn -0.3106 0.0961 -0.9457
vn -0.8137 0.0961 -0.5733
vn -0.8133 0.0961 -0.5738
vn -0.8137 0.0961 0.5733
vn -0.9534 0.0907 0.2877
vn -0.8133 0.0961 0.5738
vn -0.3106 0.0961 0.9457
vn -0.3112 0.0961 0.9455
vn 0.3192 0.0962 0.9428
vn 0.3189 0.0962 0.9429
vn 0.8162 0.0954 0.5698
vn 0.8159 0.0954 0.5702
vn 0.9512 0.0905 0.2951
vn -0.9534 0.0907 -0.2877
# 143 vertex normals

vt 0.4727 0.6573 0.0000
vt 0.3811 0.6289 0.0000
vt 0.5643 0.6289 0.0000
vt 0.6217 0.5538 0.0000
vt 0.3237 0.5538 0.0000
vt 0.3237 0.4504 0.0000
vt 0.6217 0.4504 0.0000
vt 0.3793 0.3750 0.0000
vt 0.5661 0.3750 0.0000
vt 0.5651 0.6302 0.0000
vt 0.3804 0.6302 0.0000
vt 0.4727 0.6588 0.0000
vt 0.6230 0.5545 0.0000
vt 0.6230 0.4502 0.0000
vt 0.3225 0.4502 0.0000
vt 0.3225 0.5545 0.0000
vt 0.5669 0.3742 0.0000
vt 0.3785 0.3742 0.0000
vt 0.4727 0.3459 0.0000
vt 0.4727 0.3469 0.0000
vt 0.0323 0.4808 0.0000
vt 0.0320 0.4808 0.0000
vt 0.1468 0.4808 0.0000
vt 0.1471 0.4808 0.0000
vt 0.0187 0.9814 0.0000
vt 0.1622 0.9814 0.0000
vt 0.1619 0.9814 0.0000
vt 0.0184 0.9814 0.0000
vt 0.8612 0.0142 0.0000
vt 0.8609 0.0142 0.0000
vt 0.9757 0.0142 0.0000
vt 0.9760 0.0142 0.0000
vt 0.8476 0.5148 0.0000
vt 0.9911 0.5148 0.0000
vt 0.9908 0.5148 0.0000
vt 0.8473 0.5148 0.0000
vt 0.2075 0.0186 0.0000
vt 0.2083 0.0186 0.0000
vt 0.3226 0.0186 0.0000
vt 0.3218 0.0186 0.0000
vt 0.1909 0.5192 0.0000
vt 0.3337 0.5192 0.0000
vt 0.3347 0.5192 0.0000
vt 0.1918 0.5192 0.0000
vt 0.6667 0.4823 0.0000
vt 0.6667 0.4812 0.0000
vt 0.7817 0.4812 0.0000
vt 0.7817 0.4823 0.0000
vt 0.6523 0.9818 0.0000
vt 0.7961 0.9818 0.0000
vt 0.7961 0.9803 0.0000
vt 0.6523 0.9803 0.0000
vt 0.6629 0.0101 0.0000
vt 0.7779 0.0101 0.0000
vt 0.6485 0.5107 0.0000
vt 0.7923 0.5107 0.0000
vt 0.4276 0.0136 0.0000
vt 0.4276 0.0127 0.0000
vt 0.5426 0.0127 0.0000
vt 0.5426 0.0136 0.0000
vt 0.4132 0.5133 0.0000
vt 0.5570 0.5133 0.0000
vt 0.5570 0.5122 0.0000
vt 0.4132 0.5122 0.0000
vt 0.2089 0.4755 0.0000
vt 0.2092 0.4750 0.0000
vt 0.3240 0.4750 0.0000
vt 0.3237 0.4756 0.0000
vt 0.1938 0.9755 0.0000
vt 0.3373 0.9756 0.0000
vt 0.3376 0.9748 0.0000
vt 0.1941 0.9747 0.0000
vt 0.4278 0.4724 0.0000
vt 0.4278 0.4719 0.0000
vt 0.5429 0.4718 0.0000
vt 0.5429 0.4724 0.0000
vt 0.4135 0.9725 0.0000
vt 0.5573 0.9724 0.0000
vt 0.5573 0.9717 0.0000
vt 0.4135 0.9717 0.0000
vt 0.8633 0.4881 0.0000
vt 0.8633 0.4867 0.0000
vt 0.9783 0.4867 0.0000
vt 0.9783 0.4881 0.0000
vt 0.8489 0.9873 0.0000
vt 0.9927 0.9873 0.0000
vt 0.9927 0.9855 0.0000
vt 0.8489 0.9855 0.0000
vt 0.0348 0.0079 0.0000
vt 0.0357 0.0082 0.0000
vt 0.1498 0.0080 0.0000
vt 0.1488 0.0077 0.0000
vt 0.0173 0.5079 0.0000
vt 0.1599 0.5077 0.0000
vt 0.1611 0.5081 0.0000
vt 0.0185 0.5083 0.0000
vt 0.5000 0.5168 0.5000
vt 0.5000 0.4800 0.4915
vt 0.6445 0.4800 0.5023
vt 0.6445 0.5168 0.5110
vt 0.9245 0.5168 0.5267
vt 0.7807 0.5168 0.5267
vt 0.7807 0.4800 0.5178
vt 0.9245 0.4800 0.5178
vt 1.0591 0.4800 0.5062
vt 1.0591 0.5168 0.5150
vt -0.2054 0.5168 0.5000
vt -0.2054 0.4800 0.4915
vt -0.0591 0.4800 0.5062
vt -0.0591 0.5168 0.5150
vt 0.2193 0.5168 0.5267
vt 0.0755 0.5168 0.5267
vt 0.0755 0.4800 0.5178
vt 0.2193 0.4800 0.5178
vt 0.3555 0.4800 0.5023
vt 0.3555 0.5168 0.5110
vt 1.2054 0.4800 0.4915
vt 1.2054 0.5168 0.5000
vt 0.6446 0.4800 0.4845
vt 0.5000 0.4800 0.4740
vt 0.5000 0.5168 0.4821
vt 0.6446 0.5168 0.4929
vt 0.7807 0.4800 0.4995
vt 0.7807 0.5168 0.5081
vt 0.9246 0.5168 0.5081
vt 0.9246 0.4800 0.4995
vt 1.0590 0.4800 0.4884
vt 1.0590 0.5168 0.4969
vt -0.0590 0.4800 0.4884
vt -0.2054 0.4800 0.4740
vt -0.2054 0.5168 0.4821
vt -0.0590 0.5168 0.4969
vt 0.0754 0.4800 0.4995
vt 0.0754 0.5168 0.5081
vt 0.2193 0.5168 0.5081
vt 0.2193 0.4800 0.4995
vt 0.3554 0.4800 0.4845
vt 0.3554 0.5168 0.4929
vt 1.2054 0.4800 0.4740
vt 1.2054 0.5168 0.4821
# 140 texture coords

g Crate_05
s 2
f 1/1/1 2/2/1 3/3/2 
f 4/4/1 5/5/2 6/6/1 7/7/1 
f 6/6/1 8/8/1 9/9/1 7/7/1 
s 4
f 10/10/3 11/11/3 12/12/3 
f 13/13/4 14/14/4 15/15/5 16/16/3 
f 17/17/5 18/18/3 15/15/5 14/14/4 
s 8
f 3/3/6 10/10/7 12/12/8 1/1/8 
f 4/4/9 7/7/10 14/14/11 13/13/12 
f 9/9/13 17/17/14 14/14/11 7/7/10 
s 32
f 8/8/15 18/18/16 19/19/17 20/20/17 
f 6/6/18 5/5/19 16/16/20 15/15/21 
f 2/2/22 11/11/23 16/16/20 5/5/19 
s 2
f 5/5/2 4/4/1 3/3/2 2/2/1 
s 4
f 13/13/4 16/16/3 11/11/3 10/10/3 
s 8
f 4/4/9 13/13/12 10/10/7 3/3/6 
s 32
f 1/1/24 12/12/24 11/11/23 2/2/22 
s 2
f 8/8/1 20/20/1 9/9/1 
s 4
f 17/17/5 19/19/3 18/18/3 
s 8
f 20/20/25 19/19/25 17/17/14 9/9/13 
s 32
f 6/6/18 15/15/21 18/18/16 8/8/15 
s 2
f 21/21/1 22/22/1 23/23/1 24/24/1 
s 4
f 25/25/3 26/26/3 27/27/3 28/28/3 
s 8
f 28/28/26 27/27/26 23/23/26 22/22/26 
s 16
f 25/25/27 28/28/27 22/22/27 21/21/27 
s 32
f 26/26/28 25/25/28 21/21/28 24/24/28 
s 64
f 27/27/29 26/26/29 24/24/29 23/23/29 
s 2
f 29/29/1 30/30/1 31/31/1 32/32/1 
s 4
f 33/33/4 34/34/4 35/35/4 36/36/3 
s 8
f 36/36/30 35/35/30 31/31/30 30/30/30 
s 16
f 33/33/31 36/36/31 30/30/32 29/29/32 
s 32
f 34/34/33 33/33/33 29/29/33 32/32/33 
s 64
f 35/35/34 34/34/34 32/32/35 31/31/35 
s 2
f 37/37/1 38/38/1 39/39/1 40/40/1 
s 4
f 41/41/3 42/42/3 43/43/3 44/44/3 
s 8
f 44/44/36 43/43/36 39/39/36 38/38/36 
s 16
f 41/41/37 44/44/37 38/38/37 37/37/37 
s 32
f 42/42/38 41/41/38 37/37/38 40/40/38 
s 64
f 43/43/39 42/42/39 40/40/39 39/39/39 
s 2
f 45/45/1 46/46/1 47/47/1 48/48/1 
s 4
f 49/49/3 50/50/3 51/51/3 52/52/3 
s 8
f 52/52/40 51/51/40 47/47/40 46/46/40 
s 16
f 49/49/41 52/52/41 46/46/41 45/45/41 
s 32
f 50/50/42 49/49/42 45/45/42 48/48/42 
s 64
f 51/51/43 50/50/43 48/48/43 47/47/43 
s 2
f 53/53/1 54/53/1 55/54/1 56/54/1 
s 4
f 57/55/5 58/56/44 59/56/44 60/55/5 
s 8
f 60/55/45 59/56/45 55/54/45 54/53/45 
s 16
f 57/55/46 60/55/46 54/53/46 53/53/46 
s 32
f 58/56/47 57/55/47 53/53/47 56/54/47 
s 64
f 59/56/48 58/56/48 56/54/48 55/54/48 
s 2
f 61/57/1 62/58/1 63/59/1 64/60/1 
s 4
f 65/61/3 66/62/3 67/63/3 68/64/3 
s 8
f 68/64/49 67/63/49 63/59/49 62/58/50 
s 16
f 65/61/29 68/64/29 62/58/29 61/57/29 
s 32
f 66/62/51 65/61/51 61/57/51 64/60/51 
s 64
f 67/63/27 66/62/27 64/60/27 63/59/27 
s 2
f 69/65/1 70/66/1 71/67/1 72/68/1 
s 4
f 73/69/4 74/70/4 75/71/4 76/72/4 
s 8
f 76/72/52 75/71/52 71/67/52 70/66/52 
s 16
f 73/69/34 76/72/34 70/66/35 69/65/35 
s 32
f 74/70/53 73/69/53 69/65/53 72/68/53 
s 64
f 75/71/32 74/70/32 72/68/31 71/67/31 
s 2
f 77/73/1 78/74/1 79/75/1 80/76/1 
s 4
f 81/77/3 82/78/3 83/79/3 84/80/3 
s 8
f 84/80/54 83/79/54 79/75/54 78/74/54 
s 16
f 81/77/39 84/80/39 78/74/39 77/73/39 
s 32
f 82/78/55 81/77/55 77/73/55 80/76/55 
s 64
f 83/79/37 82/78/37 80/76/37 79/75/37 
s 2
f 85/81/1 86/82/1 87/83/1 88/84/1 
s 4
f 89/85/3 90/86/3 91/87/3 92/88/3 
s 8
f 92/88/56 91/87/56 87/83/56 86/82/56 
s 16
f 89/85/43 92/88/43 86/82/43 85/81/43 
s 32
f 90/86/57 89/85/57 85/81/57 88/84/57 
s 64
f 91/87/41 90/86/41 88/84/41 87/83/41 
s 2
f 93/89/1 94/90/1 95/91/1 96/92/1 
s 4
f 97/93/3 98/94/3 99/95/3 100/96/3 
s 8
f 100/96/58 99/95/58 95/91/58 94/90/58 
s 16
f 97/93/48 100/96/48 94/90/59 93/89/59 
s 32
f 98/94/60 97/93/60 93/89/60 96/92/60 
s 64
f 99/95/61 98/94/61 96/92/46 95/91/46 
s 8
f 101/97/62 102/98/62 103/99/63 104/100/64 
f 105/101/65 106/102/66 107/103/67 108/104/68 
f 105/101/65 108/104/68 109/105/69 110/106/70 
s 32
f 111/107/71 112/108/71 113/109/72 114/110/73 
f 115/111/74 116/112/75 117/113/76 118/114/77 
f 115/111/74 118/114/77 119/115/78 120/116/79 
s 8
f 104/100/64 103/99/63 107/103/67 106/102/66 
s 32
f 120/116/79 119/115/78 102/98/80 101/97/80 
s 8
f 110/106/70 109/105/69 112/117/81 111/118/81 
s 32
f 114/110/73 113/109/72 117/113/76 116/112/75 
s 8
f 121/119/82 122/120/83 123/121/83 124/122/84 
f 125/123/85 126/124/86 127/125/87 128/126/88 
f 129/127/89 128/126/88 127/125/87 130/128/90 
s 32
f 131/129/91 132/130/92 133/131/92 134/132/93 
f 135/133/94 136/134/95 137/135/96 138/136/97 
f 139/137/98 138/136/97 137/135/96 140/138/99 
s 8
f 125/123/85 121/119/82 124/122/84 126/124/86 
s 32
f 122/120/100 139/137/98 140/138/99 123/121/100 
s 8
f 132/139/101 129/127/89 130/128/90 133/140/101 
s 32
f 135/133/94 131/129/91 134/132/93 136/134/95 
s 1
f 124/122/3 123/121/3 101/97/3 104/100/3 
f 122/120/2 121/119/102 103/99/102 102/98/2 
f 125/123/1 128/126/2 108/104/2 107/103/1 
f 127/125/3 126/124/3 106/102/3 105/101/3 
f 130/128/3 127/125/3 105/101/3 110/106/3 
f 128/126/2 129/127/102 109/105/102 108/104/2 
f 134/132/3 133/131/3 111/107/3 114/110/3 
f 132/130/1 131/129/1 113/109/1 112/108/102 
f 135/133/102 138/136/103 118/114/103 117/113/102 
f 137/135/3 136/134/3 116/112/3 115/111/3 
f 140/138/3 137/135/3 115/111/3 120/116/3 
f 138/136/103 139/137/2 119/115/2 118/114/103 
f 126/124/3 124/122/3 104/100/3 106/102/3 
f 121/119/102 125/123/1 107/103/1 103/99/102 
f 123/121/3 140/138/3 120/116/3 101/97/3 
f 139/137/2 122/120/2 102/98/2 119/115/2 
f 133/140/3 130/128/3 110/106/3 111/118/3 
f 129/127/102 132/139/1 112/117/102 109/105/102 
f 136/134/3 134/132/3 114/110/3 116/112/3 
f 131/129/1 135/133/102 117/113/102 113/109/1 
s 8
f 141/97/104 142/98/104 143/99/105 144/100/106 
f 145/101/107 146/102/108 147/103/109 148/104/110 
f 145/101/107 148/104/110 149/105/111 150/106/112 
s 32
f 151/107/113 152/108/113 153/109/114 154/110/115 
f 155/111/116 156/112/117 157/113/118 158/114/119 
f 155/111/116 158/114/119 159/115/120 160/116/121 
s 8
f 144/100/106 143/99/105 147/103/109 146/102/108 
s 32
f 160/116/121 159/115/120 142/98/122 141/97/122 
s 8
f 150/106/112 149/105/111 152/117/123 151/118/123 
s 32
f 154/110/115 153/109/114 157/113/118 156/112/117 
s 8
f 161/119/124 162/120/125 163/121/125 164/122/126 
f 165/123/127 166/124/128 167/125/129 168/126/130 
f 169/127/131 168/126/130 167/125/129 170/128/132 
s 32
f 171/129/133 172/130/134 173/131/134 174/132/135 
f 175/133/136 176/134/137 177/135/138 178/136/139 
f 179/137/140 178/136/139 177/135/138 180/138/141 
s 8
f 165/123/127 161/119/124 164/122/126 166/124/128 
s 32
f 162/120/142 179/137/140 180/138/141 163/121/142 
s 8
f 172/139/143 169/127/131 170/128/132 173/140/143 
s 32
f 175/133/136 171/129/133 174/132/135 176/134/137 
s 1
f 164/122/3 163/121/3 141/97/3 144/100/3 
f 162/120/102 161/119/102 143/99/102 142/98/102 
f 165/123/1 168/126/2 148/104/2 147/103/1 
f 167/125/3 166/124/3 146/102/3 145/101/3 
f 170/128/3 167/125/3 145/101/3 150/106/3 
f 168/126/2 169/127/102 149/105/102 148/104/2 
f 174/132/3 173/131/3 151/107/3 154/110/3 
f 172/130/1 171/129/1 153/109/1 152/108/102 
f 175/133/102 178/136/103 158/114/103 157/113/102 
f 177/135/3 176/134/3 156/112/3 155/111/3 
f 180/138/3 177/135/3 155/111/3 160/116/3 
f 178/136/103 179/137/2 159/115/2 158/114/103 
f 166/124/3 164/122/3 144/100/3 146/102/3 
f 161/119/102 165/123/1 147/103/1 143/99/102 
f 163/121/3 180/138/3 160/116/3 141/97/3 
f 179/137/2 162/120/102 142/98/102 159/115/2 
f 173/140/3 170/128/3 150/106/3 151/118/3 
f 169/127/102 172/139/1 152/117/102 149/105/102 
f 176/134/3 174/132/3 154/110/3 156/112/3 
f 171/129/1 175/133/102 157/113/102 153/109/1 
# 156 polygons - 4 triangles

