# 3ds Max Wavefront OBJ Exporter v0.97b - (c)2007 guruware
# File Created: 23.07.2014 10:05:36

#
# object Crate_02_case
#

v  -0.2350 0.0050 0.1250
v  -0.2350 0.0050 0.0010
v  0.2350 0.0050 0.0010
v  0.2350 0.0050 0.1250
v  -0.2350 0.0100 0.1250
v  0.2350 0.0100 0.1250
v  0.2350 0.0100 0.0010
v  -0.2350 0.0100 0.0010
v  -0.2500 0.0100 -0.1205
v  -0.2500 0.0100 -0.1255
v  0.2500 0.0100 -0.1255
v  0.2500 0.0100 -0.1205
v  -0.2500 0.1600 -0.1205
v  0.2500 0.1600 -0.1205
v  0.2500 0.1600 -0.1255
v  -0.2500 0.1600 -0.1255
v  -0.2500 0.0100 0.1255
v  -0.2500 0.0100 0.1205
v  0.2500 0.0100 0.1205
v  0.2500 0.0100 0.1255
v  -0.2500 0.1600 0.1255
v  0.2500 0.1600 0.1255
v  0.2500 0.1600 0.1205
v  -0.2500 0.1600 0.1205
v  0.2345 0.0050 0.1200
v  0.2345 0.0050 0.0600
v  0.2495 0.0050 0.0600
v  0.2495 0.0050 0.1200
v  0.2345 0.1650 0.1200
v  0.2495 0.1650 0.1200
v  0.2495 0.1650 0.0600
v  0.2345 0.1650 0.0600
v  0.2345 0.0050 -0.0600
v  0.2345 0.0050 -0.1200
v  0.2495 0.0050 -0.1200
v  0.2495 0.0050 -0.0600
v  0.2345 0.1650 -0.0600
v  0.2495 0.1650 -0.0600
v  0.2495 0.1650 -0.1200
v  0.2345 0.1650 -0.1200
v  -0.2495 0.0050 -0.0600
v  -0.2495 0.0050 -0.1200
v  -0.2345 0.0050 -0.1200
v  -0.2345 0.0050 -0.0600
v  -0.2495 0.1650 -0.0600
v  -0.2345 0.1650 -0.0600
v  -0.2345 0.1650 -0.1200
v  -0.2495 0.1650 -0.1200
v  -0.2495 0.0050 0.1200
v  -0.2495 0.0050 0.0600
v  -0.2345 0.0050 0.0600
v  -0.2345 0.0050 0.1200
v  -0.2495 0.1650 0.1200
v  -0.2345 0.1650 0.1200
v  -0.2345 0.1650 0.0600
v  -0.2495 0.1650 0.0600
v  -0.2345 0.0100 0.1200
v  -0.2345 0.0100 -0.1200
v  -0.2295 0.0100 -0.1200
v  -0.2295 0.0100 0.1200
v  -0.2345 0.1600 0.1200
v  -0.2295 0.1600 0.1200
v  -0.2295 0.1600 -0.1200
v  -0.2345 0.1600 -0.1200
v  -0.2295 0.1125 -0.0416
v  -0.2295 0.1125 0.0416
v  -0.2295 0.1233 -0.0472
v  -0.2295 0.1167 -0.0472
v  -0.2295 0.1275 0.0416
v  -0.2295 0.1275 -0.0416
v  -0.2295 0.1167 0.0472
v  -0.2295 0.1233 0.0472
v  -0.2345 0.1125 0.0416
v  -0.2345 0.1125 -0.0416
v  -0.2345 0.1233 0.0472
v  -0.2345 0.1167 0.0472
v  -0.2345 0.1275 -0.0416
v  -0.2345 0.1275 0.0416
v  -0.2345 0.1167 -0.0472
v  -0.2345 0.1233 -0.0472
v  -0.2350 0.0050 -0.0010
v  -0.2350 0.0050 -0.1250
v  0.2350 0.0050 -0.1250
v  0.2350 0.0050 -0.0010
v  -0.2350 0.0100 -0.0010
v  0.2350 0.0100 -0.0010
v  0.2350 0.0100 -0.1250
v  -0.2350 0.0100 -0.1250
v  -0.1550 0.0000 0.1305
v  -0.1550 0.0000 0.1255
v  -0.0950 0.0000 0.1255
v  -0.0950 0.0000 0.1305
v  -0.1550 0.1700 0.1305
v  -0.0950 0.1700 0.1305
v  -0.0950 0.1700 0.1255
v  -0.1550 0.1700 0.1255
v  -0.1550 0.0000 0.1250
v  -0.1550 0.0000 -0.1250
v  -0.0950 0.0000 -0.1250
v  -0.0950 0.0000 0.1250
v  -0.1550 0.0050 0.1250
v  -0.0950 0.0050 0.1250
v  -0.0950 0.0050 -0.1250
v  -0.1550 0.0050 -0.1250
v  -0.1550 0.0000 -0.1255
v  -0.1550 0.0000 -0.1305
v  -0.0950 0.0000 -0.1305
v  -0.0950 0.0000 -0.1255
v  -0.1550 0.1700 -0.1255
v  -0.0950 0.1700 -0.1255
v  -0.0950 0.1700 -0.1305
v  -0.1550 0.1700 -0.1305
v  0.0950 0.0000 0.1305
v  0.0950 0.0000 0.1255
v  0.1550 0.0000 0.1255
v  0.1550 0.0000 0.1305
v  0.0950 0.1700 0.1305
v  0.1550 0.1700 0.1305
v  0.1550 0.1700 0.1255
v  0.0950 0.1700 0.1255
v  0.0950 0.0000 0.1250
v  0.0950 0.0000 -0.1250
v  0.1550 0.0000 -0.1250
v  0.1550 0.0000 0.1250
v  0.0950 0.0050 0.1250
v  0.1550 0.0050 0.1250
v  0.1550 0.0050 -0.1250
v  0.0950 0.0050 -0.1250
v  0.0950 0.0000 -0.1255
v  0.0950 0.0000 -0.1305
v  0.1550 0.0000 -0.1305
v  0.1550 0.0000 -0.1255
v  0.0950 0.1700 -0.1255
v  0.1550 0.1700 -0.1255
v  0.1550 0.1700 -0.1305
v  0.0950 0.1700 -0.1305
v  0.2295 0.0100 0.1200
v  0.2295 0.0100 -0.1200
v  0.2345 0.0100 -0.1200
v  0.2345 0.0100 0.1200
v  0.2295 0.1600 0.1200
v  0.2345 0.1600 0.1200
v  0.2345 0.1600 -0.1200
v  0.2295 0.1600 -0.1200
v  0.2345 0.1125 -0.0416
v  0.2345 0.1125 0.0416
v  0.2345 0.1233 -0.0472
v  0.2345 0.1167 -0.0472
v  0.2345 0.1275 0.0416
v  0.2345 0.1275 -0.0416
v  0.2345 0.1167 0.0472
v  0.2345 0.1233 0.0472
v  0.2295 0.1125 0.0416
v  0.2295 0.1125 -0.0416
v  0.2295 0.1233 0.0472
v  0.2295 0.1167 0.0472
v  0.2295 0.1275 -0.0416
v  0.2295 0.1275 0.0416
v  0.2295 0.1167 -0.0472
v  0.2295 0.1233 -0.0472
# 160 vertices

vn 0.0000 -1.0000 -0.0000
vn 0.0000 1.0000 -0.0000
vn 0.0000 0.0000 1.0000
vn 1.0000 0.0000 -0.0000
vn 0.0000 0.0000 -1.0000
vn -1.0000 0.0000 -0.0000
vn 0.0000 0.8002 0.5997
vn 0.0000 -0.8002 0.5997
vn 0.0000 -0.8002 -0.5997
vn 0.0000 0.8002 -0.5997
# 10 vertex normals

vt 0.2467 0.9670 0.0000
vt 0.4931 0.9670 0.0000
vt 0.4931 0.0330 0.0000
vt 0.2467 0.0330 0.0000
vt 0.0008 1.0000 0.0000
vt 0.0008 -0.0000 0.0000
vt 0.3008 1.0000 0.0000
vt 0.3008 -0.0000 0.0000
vt 0.5223 0.0174 0.0000
vt 0.6417 0.0174 0.0000
vt 0.5223 0.3358 0.0000
vt 0.6417 0.3358 0.0000
vt 0.8665 0.6642 0.0000
vt 0.9859 0.6642 0.0000
vt 0.8665 0.9826 0.0000
vt 0.9859 0.9826 0.0000
vt 0.0146 0.5807 0.0000
vt 0.1340 0.5807 0.0000
vt 0.0146 0.8992 0.0000
vt 0.1340 0.8992 0.0000
vt 0.7413 0.0383 0.0000
vt 0.8608 0.0383 0.0000
vt 0.7413 0.3567 0.0000
vt 0.8608 0.3567 0.0000
vt 0.0243 0.7357 0.0000
vt 0.0243 0.2643 0.0000
vt 0.3190 0.7357 0.0000
vt 0.3190 0.2643 0.0000
vt 0.2257 0.4182 0.0000
vt 0.2257 0.5818 0.0000
vt 0.2469 0.4072 0.0000
vt 0.2339 0.4072 0.0000
vt 0.2551 0.5818 0.0000
vt 0.2551 0.4182 0.0000
vt 0.2339 0.5928 0.0000
vt 0.2469 0.5928 0.0000
vt 0.4324 0.9670 0.0000
vt 0.6788 0.9670 0.0000
vt 0.6788 0.0330 0.0000
vt 0.4324 0.0330 0.0000
vt 0.6803 0.0591 0.0000
vt 0.8037 0.0591 0.0000
vt 0.6803 0.4089 0.0000
vt 0.8037 0.4089 0.0000
vt 0.3418 0.2527 0.0000
vt 0.3418 0.7473 0.0000
vt 0.4605 0.7473 0.0000
vt 0.4605 0.2527 0.0000
vt 0.0154 0.0628 0.0000
vt 0.1388 0.0628 0.0000
vt 0.0154 0.4125 0.0000
vt 0.1388 0.4125 0.0000
vt 0.3504 0.5178 0.0000
vt 0.4738 0.5178 0.0000
vt 0.3504 0.8675 0.0000
vt 0.4738 0.8675 0.0000
vt 0.0203 0.4898 0.0000
vt 0.0203 0.9844 0.0000
vt 0.1390 0.9844 0.0000
vt 0.1390 0.4898 0.0000
vt 0.3429 0.0887 0.0000
vt 0.4663 0.0887 0.0000
vt 0.3429 0.4384 0.0000
vt 0.4663 0.4384 0.0000
vt 0.7094 0.4853 0.0000
vt 0.7094 0.0139 0.0000
vt 1.0040 0.4853 0.0000
vt 1.0040 0.0139 0.0000
vt 0.9107 0.1679 0.0000
vt 0.9107 0.3314 0.0000
vt 0.9319 0.1569 0.0000
vt 0.9189 0.1569 0.0000
vt 0.9402 0.3314 0.0000
vt 0.9402 0.1679 0.0000
vt 0.9189 0.3424 0.0000
vt 0.9319 0.3424 0.0000
# 76 texture coords

g Crate_02_case
s 2
f 1/1/1 2/2/1 3/3/1 4/4/1 
s 4
f 5/1/2 6/4/2 7/3/2 8/2/2 
s 8
f 1/1/3 4/4/3 6/4/3 5/1/3 
s 16
f 4/4/4 3/3/4 7/3/4 6/4/4 
s 32
f 3/3/5 2/2/5 8/2/5 7/3/5 
s 64
f 2/2/6 1/1/6 5/1/6 8/2/6 
s 2
f 9/5/1 10/5/1 11/6/1 12/6/1 
s 4
f 13/7/2 14/8/2 15/8/2 16/7/2 
s 8
f 9/5/3 12/6/3 14/8/3 13/7/3 
s 16
f 12/6/4 11/6/4 15/8/4 14/8/4 
s 32
f 11/6/5 10/5/5 16/7/5 15/8/5 
s 64
f 10/5/6 9/5/6 13/7/6 16/7/6 
s 2
f 17/5/1 18/5/1 19/6/1 20/6/1 
s 4
f 21/7/2 22/8/2 23/8/2 24/7/2 
s 8
f 17/5/3 20/6/3 22/8/3 21/7/3 
s 16
f 20/6/4 19/6/4 23/8/4 22/8/4 
s 32
f 19/6/5 18/5/5 24/7/5 23/8/5 
s 64
f 18/5/6 17/5/6 21/7/6 24/7/6 
s 2
f 25/9/1 26/10/1 27/10/1 28/9/1 
s 4
f 29/11/2 30/11/2 31/12/2 32/12/2 
s 8
f 25/9/3 28/9/3 30/11/3 29/11/3 
s 16
f 28/9/4 27/10/4 31/12/4 30/11/4 
s 32
f 27/10/5 26/10/5 32/12/5 31/12/5 
s 64
f 26/10/6 25/9/6 29/11/6 32/12/6 
s 2
f 33/13/1 34/14/1 35/14/1 36/13/1 
s 4
f 37/15/2 38/15/2 39/16/2 40/16/2 
s 8
f 33/13/3 36/13/3 38/15/3 37/15/3 
s 16
f 36/13/4 35/14/4 39/16/4 38/15/4 
s 32
f 35/14/5 34/14/5 40/16/5 39/16/5 
s 64
f 34/14/6 33/13/6 37/15/6 40/16/6 
s 2
f 41/17/1 42/18/1 43/18/1 44/17/1 
s 4
f 45/19/2 46/19/2 47/20/2 48/20/2 
s 8
f 41/17/3 44/17/3 46/19/3 45/19/3 
s 16
f 44/17/4 43/18/4 47/20/4 46/19/4 
s 32
f 43/18/5 42/18/5 48/20/5 47/20/5 
s 64
f 42/18/6 41/17/6 45/19/6 48/20/6 
s 2
f 49/21/1 50/22/1 51/22/1 52/21/1 
s 4
f 53/23/2 54/23/2 55/24/2 56/24/2 
s 8
f 49/21/3 52/21/3 54/23/3 53/23/3 
s 16
f 52/21/4 51/22/4 55/24/4 54/23/4 
s 32
f 51/22/5 50/22/5 56/24/5 55/24/5 
s 64
f 50/22/6 49/21/6 53/23/6 56/24/6 
s 2
f 57/25/1 58/26/1 59/26/1 60/25/1 
s 4
f 61/27/2 62/27/2 63/28/2 64/28/2 
s 8
f 57/25/3 60/25/3 62/27/3 61/27/3 
s 32
f 59/26/5 58/26/5 64/28/5 63/28/5 
s off
f 60/25/4 59/26/4 65/29/4 66/30/4 
f 63/28/4 67/31/4 68/32/4 59/26/4 
f 63/28/4 62/27/4 69/33/4 70/34/4 
f 60/25/4 71/35/4 72/36/4 62/27/4 
f 58/26/6 57/25/6 73/30/6 74/29/6 
f 61/27/6 75/36/6 76/35/6 57/25/6 
f 61/27/6 64/28/6 77/34/6 78/33/6 
f 58/26/6 79/32/6 80/31/6 64/28/6 
s 2
f 70/34/1 69/33/1 78/33/1 77/34/1 
f 66/30/2 65/29/2 74/29/2 73/30/2 
s off
f 60/25/4 66/30/4 71/35/4 
f 59/26/4 68/32/4 65/29/4 
f 63/28/4 70/34/4 67/31/4 
f 62/27/4 72/36/4 69/33/4 
f 58/26/6 74/29/6 79/32/6 
f 57/25/6 76/35/6 73/30/6 
f 61/27/6 78/33/6 75/36/6 
f 64/28/6 80/31/6 77/34/6 
f 65/29/7 68/32/7 79/32/7 74/29/7 
f 67/31/8 70/34/8 77/34/8 80/31/8 
f 69/33/9 72/36/9 75/36/9 78/33/9 
f 71/35/10 66/30/10 73/30/10 76/35/10 
f 68/32/3 67/31/3 80/31/3 79/32/3 
f 72/36/5 71/35/5 76/35/5 75/36/5 
s 2
f 81/37/1 82/38/1 83/39/1 84/40/1 
s 4
f 85/37/2 86/40/2 87/39/2 88/38/2 
s 8
f 81/37/3 84/40/3 86/40/3 85/37/3 
s 16
f 84/40/4 83/39/4 87/39/4 86/40/4 
s 32
f 83/39/5 82/38/5 88/38/5 87/39/5 
s 64
f 82/38/6 81/37/6 85/37/6 88/38/6 
s 2
f 89/41/1 90/41/1 91/42/1 92/42/1 
s 4
f 93/43/2 94/44/2 95/44/2 96/43/2 
s 8
f 89/41/3 92/42/3 94/44/3 93/43/3 
s 16
f 92/42/4 91/42/4 95/44/4 94/44/4 
s 32
f 91/42/5 90/41/5 96/43/5 95/44/5 
s 64
f 90/41/6 89/41/6 93/43/6 96/43/6 
s 2
f 97/45/1 98/46/1 99/47/1 100/48/1 
s 4
f 101/45/2 102/48/2 103/47/2 104/46/2 
s 8
f 97/45/3 100/48/3 102/48/3 101/45/3 
s 16
f 100/48/4 99/47/4 103/47/4 102/48/4 
s 32
f 99/47/5 98/46/5 104/46/5 103/47/5 
s 64
f 98/46/6 97/45/6 101/45/6 104/46/6 
s 2
f 105/49/1 106/49/1 107/50/1 108/50/1 
s 4
f 109/51/2 110/52/2 111/52/2 112/51/2 
s 8
f 105/49/3 108/50/3 110/52/3 109/51/3 
s 16
f 108/50/4 107/50/4 111/52/4 110/52/4 
s 32
f 107/50/5 106/49/5 112/51/5 111/52/5 
s 64
f 106/49/6 105/49/6 109/51/6 112/51/6 
s 2
f 113/53/1 114/53/1 115/54/1 116/54/1 
s 4
f 117/55/2 118/56/2 119/56/2 120/55/2 
s 8
f 113/53/3 116/54/3 118/56/3 117/55/3 
s 16
f 116/54/4 115/54/4 119/56/4 118/56/4 
s 32
f 115/54/5 114/53/5 120/55/5 119/56/5 
s 64
f 114/53/6 113/53/6 117/55/6 120/55/6 
s 2
f 121/57/1 122/58/1 123/59/1 124/60/1 
s 4
f 125/57/2 126/60/2 127/59/2 128/58/2 
s 8
f 121/57/3 124/60/3 126/60/3 125/57/3 
s 16
f 124/60/4 123/59/4 127/59/4 126/60/4 
s 32
f 123/59/5 122/58/5 128/58/5 127/59/5 
s 64
f 122/58/6 121/57/6 125/57/6 128/58/6 
s 2
f 129/61/1 130/61/1 131/62/1 132/62/1 
s 4
f 133/63/2 134/64/2 135/64/2 136/63/2 
s 8
f 129/61/3 132/62/3 134/64/3 133/63/3 
s 16
f 132/62/4 131/62/4 135/64/4 134/64/4 
s 32
f 131/62/5 130/61/5 136/63/5 135/64/5 
s 64
f 130/61/6 129/61/6 133/63/6 136/63/6 
s 2
f 137/65/1 138/66/1 139/66/1 140/65/1 
s 4
f 141/67/2 142/67/2 143/68/2 144/68/2 
s 8
f 137/65/3 140/65/3 142/67/3 141/67/3 
s 32
f 139/66/5 138/66/5 144/68/5 143/68/5 
s off
f 140/65/4 139/66/4 145/69/4 146/70/4 
f 143/68/4 147/71/4 148/72/4 139/66/4 
f 143/68/4 142/67/4 149/73/4 150/74/4 
f 140/65/4 151/75/4 152/76/4 142/67/4 
f 138/66/6 137/65/6 153/70/6 154/69/6 
f 141/67/6 155/76/6 156/75/6 137/65/6 
f 141/67/6 144/68/6 157/74/6 158/73/6 
f 138/66/6 159/72/6 160/71/6 144/68/6 
s 2
f 150/74/1 149/73/1 158/73/1 157/74/1 
f 146/70/2 145/69/2 154/69/2 153/70/2 
s off
f 140/65/4 146/70/4 151/75/4 
f 139/66/4 148/72/4 145/69/4 
f 143/68/4 150/74/4 147/71/4 
f 142/67/4 152/76/4 149/73/4 
f 138/66/6 154/69/6 159/72/6 
f 137/65/6 156/75/6 153/70/6 
f 141/67/6 158/73/6 155/76/6 
f 144/68/6 160/71/6 157/74/6 
f 145/69/7 148/72/7 159/72/7 154/69/7 
f 147/71/8 150/74/8 157/74/8 160/71/8 
f 149/73/9 152/76/9 155/76/9 158/73/9 
f 151/75/10 146/70/10 153/70/10 156/75/10 
f 148/72/3 147/71/3 160/71/3 159/72/3 
f 152/76/5 151/75/5 156/75/5 155/76/5 
# 124 polygons - 16 triangles

#
# object Crate_02_cover
#

v  -0.2350 0.1600 -0.0010
v  -0.2350 0.1600 -0.1250
v  0.2350 0.1600 -0.1250
v  0.2350 0.1600 -0.0010
v  -0.2350 0.1650 -0.0010
v  0.2350 0.1650 -0.0010
v  0.2350 0.1650 -0.1250
v  -0.2350 0.1650 -0.1250
v  -0.2350 0.1600 0.1250
v  -0.2350 0.1600 0.0010
v  0.2350 0.1600 0.0010
v  0.2350 0.1600 0.1250
v  -0.2350 0.1650 0.1250
v  0.2350 0.1650 0.1250
v  0.2350 0.1650 0.0010
v  -0.2350 0.1650 0.0010
v  -0.1550 0.1650 0.1250
v  -0.1550 0.1650 -0.1250
v  -0.0950 0.1650 -0.1250
v  -0.0950 0.1650 0.1250
v  -0.1550 0.1700 0.1250
v  -0.0950 0.1700 0.1250
v  -0.0950 0.1700 -0.1250
v  -0.1550 0.1700 -0.1250
v  0.0950 0.1650 0.1250
v  0.0950 0.1650 -0.1250
v  0.1550 0.1650 -0.1250
v  0.1550 0.1650 0.1250
v  0.0950 0.1700 0.1250
v  0.1550 0.1700 0.1250
v  0.1550 0.1700 -0.1250
v  0.0950 0.1700 -0.1250
# 32 vertices

vn 0.0000 -1.0000 -0.0000
vn 0.0000 1.0000 -0.0000
vn 0.0000 0.0000 1.0000
vn 1.0000 0.0000 -0.0000
vn 0.0000 0.0000 -1.0000
vn -1.0000 0.0000 -0.0000
# 6 vertex normals

vt 0.4901 0.9670 0.0000
vt 0.7365 0.9670 0.0000
vt 0.7365 0.0330 0.0000
vt 0.4901 0.0330 0.0000
vt 0.6411 0.9670 0.0000
vt 0.8875 0.9670 0.0000
vt 0.8875 0.0330 0.0000
vt 0.6411 0.0330 0.0000
vt 0.4772 0.4893 0.0000
vt 0.4772 0.9839 0.0000
vt 0.5959 0.9839 0.0000
vt 0.5959 0.4893 0.0000
vt 0.6898 0.4544 0.0000
vt 0.6898 0.9490 0.0000
vt 0.8085 0.9490 0.0000
vt 0.8085 0.4544 0.0000
# 16 texture coords

g Crate_02_cover
s 2
f 161/77/11 162/78/11 163/79/11 164/80/11 
s 4
f 165/77/12 166/80/12 167/79/12 168/78/12 
s 8
f 161/77/13 164/80/13 166/80/13 165/77/13 
s 16
f 164/80/14 163/79/14 167/79/14 166/80/14 
s 32
f 163/79/15 162/78/15 168/78/15 167/79/15 
s 64
f 162/78/16 161/77/16 165/77/16 168/78/16 
s 2
f 169/81/11 170/82/11 171/83/11 172/84/11 
s 4
f 173/81/12 174/84/12 175/83/12 176/82/12 
s 8
f 169/81/13 172/84/13 174/84/13 173/81/13 
s 16
f 172/84/14 171/83/14 175/83/14 174/84/14 
s 32
f 171/83/15 170/82/15 176/82/15 175/83/15 
s 64
f 170/82/16 169/81/16 173/81/16 176/82/16 
s 2
f 177/85/11 178/86/11 179/87/11 180/88/11 
s 4
f 181/85/12 182/88/12 183/87/12 184/86/12 
s 8
f 177/85/13 180/88/13 182/88/13 181/85/13 
s 16
f 180/88/14 179/87/14 183/87/14 182/88/14 
s 32
f 179/87/15 178/86/15 184/86/15 183/87/15 
s 64
f 178/86/16 177/85/16 181/85/16 184/86/16 
s 2
f 185/89/11 186/90/11 187/91/11 188/92/11 
s 4
f 189/89/12 190/92/12 191/91/12 192/90/12 
s 8
f 185/89/13 188/92/13 190/92/13 189/89/13 
s 16
f 188/92/14 187/91/14 191/91/14 190/92/14 
s 32
f 187/91/15 186/90/15 192/90/15 191/91/15 
s 64
f 186/90/16 185/89/16 189/89/16 192/90/16 
# 24 polygons

