# 3ds Max Wavefront OBJ Exporter v0.97b - (c)2007 guruware
# File Created: 29.07.2014 08:40:29

#
# object Gold_17
#

v  0.1500 0.0300 0.0752
v  0.0750 0.0300 0.0752
v  0.0750 0.0321 0.0002
v  0.1500 0.0300 0.0002
v  0.0186 0.0672 0.0095
v  0.0750 0.0675 0.0660
v  0.1314 0.0675 0.0660
v  0.1231 0.0675 0.0095
v  0.1314 0.0675 0.0179
v  0.1351 0.0602 0.0077
v  0.0042 0.0416 0.0023
v  -0.0000 0.0341 0.0091
v  0.0151 0.0603 0.0677
v  0.0000 0.0339 0.0753
v  0.0088 0.0337 0.0003
v  -0.0000 0.0300 -0.0747
v  0.0750 0.0300 -0.0747
v  0.0000 0.0300 0.0003
v  0.1314 0.0672 -0.0090
v  0.0750 0.0675 -0.0655
v  0.0186 0.0675 -0.0655
v  0.0269 0.0675 -0.0090
v  0.0186 0.0675 -0.0174
v  0.0149 0.0602 -0.0072
v  0.1458 0.0416 -0.0018
v  0.1500 0.0341 -0.0086
v  0.1349 0.0603 -0.0672
v  0.1500 0.0339 -0.0748
v  0.1412 0.0337 0.0002
v  -0.1475 0.0300 -0.0773
v  -0.0725 0.0300 -0.0773
v  -0.0725 0.0321 -0.0023
v  -0.1475 0.0300 -0.0023
v  -0.0161 0.0672 -0.0115
v  -0.0725 0.0675 -0.0680
v  -0.1289 0.0675 -0.0680
v  -0.1206 0.0675 -0.0115
v  -0.1289 0.0675 -0.0199
v  -0.1326 0.0602 -0.0097
v  -0.0017 0.0416 -0.0043
v  0.0025 0.0341 -0.0111
v  -0.0126 0.0603 -0.0697
v  0.0025 0.0339 -0.0773
v  -0.0063 0.0337 -0.0023
v  0.0025 0.0300 -0.0023
v  0.0025 0.0300 0.0727
v  -0.0725 0.0321 0.0727
v  -0.0725 0.0300 -0.0023
v  -0.0161 0.0675 0.0070
v  -0.0725 0.0675 0.0070
v  -0.1289 0.0672 0.0635
v  -0.0245 0.0675 0.0635
v  -0.0161 0.0675 0.0551
v  -0.0124 0.0602 0.0653
v  -0.1324 0.0603 0.0053
v  -0.1475 0.0341 0.0639
v  -0.1433 0.0416 0.0707
v  -0.1475 0.0339 -0.0023
v  -0.1387 0.0337 0.0727
v  0.0044 0.0675 0.0336
v  -0.0530 0.0675 0.0818
v  -0.1012 0.0696 0.0244
v  -0.0438 0.0675 -0.0239
v  -0.0146 0.1050 0.0253
v  -0.0509 0.1050 -0.0179
v  -0.1304 0.1047 -0.0248
v  -0.0632 0.1050 0.0552
v  -0.0514 0.1050 0.0562
v  -0.0569 0.0977 0.0656
v  -0.0881 0.0978 -0.0649
v  -0.1427 0.0716 -0.0388
v  -0.1452 0.0791 -0.0312
v  -0.0920 0.0714 -0.0813
v  -0.1438 0.0712 -0.0263
v  0.0375 0.0675 -0.0747
v  0.1125 0.0675 -0.0748
v  0.1125 0.0696 0.0002
v  0.0375 0.0675 0.0003
v  0.0468 0.1050 -0.0562
v  0.0468 0.1050 0.0003
v  0.1032 0.1047 0.0567
v  0.1032 0.1050 -0.0478
v  0.0948 0.1050 -0.0562
v  0.1050 0.0977 -0.0598
v  0.0451 0.0978 0.0602
v  0.1037 0.0716 0.0752
v  0.1104 0.0791 0.0711
v  0.0375 0.0714 0.0753
v  0.1125 0.0712 0.0664
# 89 vertices

vn 0.6817 -0.4014 0.6117
vn -0.0206 -0.6333 0.7737
vn -0.0199 -0.6035 -0.7971
vn 0.6781 -0.4057 -0.6129
vn -0.4013 0.7736 -0.4905
vn -0.0197 0.7912 0.6113
vn 0.4201 0.7480 0.5138
vn 0.0897 0.7878 -0.6094
vn 0.5221 0.8472 -0.0983
vn 0.5669 0.5327 -0.6283
vn -0.6576 0.3156 -0.6841
vn -0.8593 -0.4792 -0.1786
vn -0.4395 0.7133 0.5459
vn -0.7000 -0.3581 0.6178
vn -0.2150 -0.5920 -0.7767
vn -0.6817 -0.4014 -0.6117
vn 0.0206 -0.6333 -0.7737
vn 0.0199 -0.6035 0.7971
vn -0.6781 -0.4057 0.6129
vn 0.4013 0.7736 0.4905
vn 0.0197 0.7912 -0.6113
vn -0.4201 0.7480 -0.5138
vn -0.0897 0.7878 0.6094
vn -0.5221 0.8472 0.0983
vn -0.5669 0.5327 0.6283
vn 0.6576 0.3156 0.6841
vn 0.8593 -0.4792 0.1786
vn 0.4395 0.7133 -0.5459
vn 0.7000 -0.3581 -0.6178
vn 0.2150 -0.5920 0.7767
vn 0.6817 -0.4014 -0.6117
vn 0.6781 -0.4057 0.6129
vn -0.0199 -0.6035 0.7971
vn -0.0206 -0.6333 -0.7737
vn 0.4201 0.7480 -0.5138
vn -0.0197 0.7912 -0.6113
vn -0.4013 0.7736 0.4905
vn 0.0897 0.7878 0.6094
vn 0.5221 0.8472 0.0983
vn 0.5669 0.5327 0.6283
vn -0.4395 0.7133 -0.5459
vn -0.8593 -0.4792 0.1786
vn -0.6576 0.3156 0.6841
vn -0.7000 -0.3581 -0.6178
vn -0.2150 -0.5920 0.7767
vn 0.9068 -0.4014 0.1290
vn -0.0337 -0.4057 0.9134
vn -0.6234 -0.6035 0.4971
vn 0.5794 -0.6333 -0.5131
vn 0.6636 0.7480 -0.0085
vn 0.4556 0.7912 -0.4081
vn -0.6337 0.7736 0.0078
vn -0.4092 0.7877 0.4604
vn 0.2603 0.8472 0.4632
vn -0.1169 0.5327 0.8382
vn 0.1357 0.7133 -0.6876
vn -0.6892 -0.4792 -0.5435
vn -0.9467 0.3156 -0.0641
vn 0.0233 -0.3581 -0.9334
vn -0.7332 -0.5920 0.3345
vn -0.6117 -0.4014 -0.6817
vn 0.6129 -0.4057 -0.6781
vn 0.7971 -0.6035 0.0199
vn -0.7737 -0.6333 0.0206
vn -0.5138 0.7480 -0.4201
vn -0.6113 0.7912 0.0197
vn 0.4905 0.7736 0.4013
vn 0.6094 0.7878 -0.0897
vn 0.0983 0.8472 -0.5221
vn 0.6283 0.5327 -0.5669
vn -0.5459 0.7133 0.4395
vn 0.1786 -0.4792 0.8593
vn 0.6841 0.3156 0.6576
vn -0.6178 -0.3581 0.7000
vn 0.7767 -0.5920 0.2150
# 75 vertex normals

vt 0.9940 0.1384 0.0000
vt 0.9917 0.4982 0.0000
vt 0.6333 0.4944 0.0000
vt 0.6342 0.1353 0.0000
vt 0.4690 0.7727 0.0000
vt 0.2000 0.5040 0.0000
vt 0.1970 0.2357 0.0000
vt 0.4616 0.2729 0.0000
vt 0.4268 0.2365 0.0000
vt 0.4842 0.2086 0.0000
vt 0.4929 0.9153 0.0000
vt 0.4578 0.9539 0.0000
vt 0.1878 0.7906 0.0000
vt 0.0167 0.5126 0.0000
vt 0.0609 0.8718 0.0000
vt 0.1631 0.0351 0.0000
vt 0.9862 0.8596 0.0000
vt 0.6345 0.8082 0.0000
vt 0.0088 0.1513 0.0000
vt 0.6644 0.8554 0.0000
vt 0.6056 0.8374 0.0000
vt 0.1417 0.9331 0.0000
vt 0.5234 0.0476 0.0000
# 23 texture coords

g Gold_17
s 1
f 1/1/1 2/2/2 3/3/3 4/4/4 
f 5/5/5 6/6/6 7/7/7 8/8/8 
f 9/9/9 8/8/8 7/7/7 
f 4/4/4 3/3/3 10/10/10 
f 5/5/5 11/11/11 12/12/12 13/13/13 
f 2/14/2 6/6/6 13/13/13 14/15/14 
f 10/10/10 9/9/9 7/7/7 1/16/1 
f 2/2/2 14/17/14 3/3/3 
f 5/5/5 13/13/13 6/6/6 
f 3/3/3 15/18/15 5/5/5 
f 2/14/2 1/19/1 7/7/7 6/6/6 
f 12/20/12 11/21/11 15/18/15 
f 12/12/12 14/22/14 13/13/13 
f 15/18/15 11/21/11 5/5/5 
f 12/20/12 15/18/15 3/3/3 14/17/14 
f 10/10/10 8/8/8 9/9/9 
f 5/5/5 8/8/8 10/10/10 3/3/3 
f 1/16/1 4/23/4 10/10/10 
f 16/1/16 17/2/17 3/3/18 18/4/19 
f 19/5/20 20/6/21 21/7/22 22/8/23 
f 23/9/24 22/8/23 21/7/22 
f 18/4/19 3/3/18 24/10/25 
f 19/5/20 25/11/26 26/12/27 27/13/28 
f 17/14/17 20/6/21 27/13/28 28/15/29 
f 24/10/25 23/9/24 21/7/22 16/16/16 
f 17/2/17 28/17/29 3/3/18 
f 19/5/20 27/13/28 20/6/21 
f 3/3/18 29/18/30 19/5/20 
f 17/14/17 16/19/16 21/7/22 20/6/21 
f 26/20/27 25/21/26 29/18/30 
f 26/12/27 28/22/29 27/13/28 
f 29/18/30 25/21/26 19/5/20 
f 26/20/27 29/18/30 3/3/18 28/17/29 
f 24/10/25 22/8/23 23/9/24 
f 19/5/20 22/8/23 24/10/25 3/3/18 
f 16/16/16 18/23/19 24/10/25 
f 30/1/16 31/2/17 32/3/18 33/4/19 
f 34/5/20 35/6/21 36/7/22 37/8/23 
f 38/9/24 37/8/23 36/7/22 
f 33/4/19 32/3/18 39/10/25 
f 34/5/20 40/11/26 41/12/27 42/13/28 
f 31/14/17 35/6/21 42/13/28 43/15/29 
f 39/10/25 38/9/24 36/7/22 30/16/16 
f 31/2/17 43/17/29 32/3/18 
f 34/5/20 42/13/28 35/6/21 
f 32/3/18 44/18/30 34/5/20 
f 31/14/17 30/19/16 36/7/22 35/6/21 
f 41/20/27 40/21/26 44/18/30 
f 41/12/27 43/22/29 42/13/28 
f 44/18/30 40/21/26 34/5/20 
f 41/20/27 44/18/30 32/3/18 43/17/29 
f 39/10/25 37/8/23 38/9/24 
f 34/5/20 37/8/23 39/10/25 32/3/18 
f 30/16/16 33/23/19 39/10/25 
f 45/1/31 46/4/32 47/3/33 48/2/34 
f 49/7/35 50/6/36 51/5/37 52/8/38 
f 53/9/39 49/7/35 52/8/38 
f 46/4/32 54/10/40 47/3/33 
f 51/5/37 55/13/41 56/12/42 57/11/43 
f 48/14/34 58/15/44 55/13/41 50/6/36 
f 54/10/40 45/16/31 49/7/35 53/9/39 
f 48/2/34 47/3/33 58/17/44 
f 51/5/37 50/6/36 55/13/41 
f 47/3/33 51/5/37 59/18/45 
f 48/14/34 50/6/36 49/7/35 45/19/31 
f 56/20/42 59/18/45 57/21/43 
f 56/12/42 55/13/41 58/22/44 
f 59/18/45 51/5/37 57/21/43 
f 56/20/42 58/17/44 47/3/33 59/18/45 
f 54/10/40 53/9/39 52/8/38 
f 51/5/37 47/3/33 54/10/40 52/8/38 
f 45/16/31 54/10/40 46/23/32 
f 60/1/46 61/4/47 62/3/48 63/2/49 
f 64/7/50 65/6/51 66/5/52 67/8/53 
f 68/9/54 64/7/50 67/8/53 
f 61/4/47 69/10/55 62/3/48 
f 66/5/52 70/13/56 71/12/57 72/11/58 
f 63/14/49 73/15/59 70/13/56 65/6/51 
f 69/10/55 60/16/46 64/7/50 68/9/54 
f 63/2/49 62/3/48 73/17/59 
f 66/5/52 65/6/51 70/13/56 
f 62/3/48 66/5/52 74/18/60 
f 63/14/49 65/6/51 64/7/50 60/19/46 
f 71/20/57 74/18/60 72/21/58 
f 71/12/57 70/13/56 73/22/59 
f 74/18/60 66/5/52 72/21/58 
f 71/20/57 73/17/59 62/3/48 74/18/60 
f 69/10/55 68/9/54 67/8/53 
f 66/5/52 62/3/48 69/10/55 67/8/53 
f 60/16/46 69/10/55 61/23/47 
f 75/1/61 76/4/62 77/3/63 78/2/64 
f 79/7/65 80/6/66 81/5/67 82/8/68 
f 83/9/69 79/7/65 82/8/68 
f 76/4/62 84/10/70 77/3/63 
f 81/5/67 85/13/71 86/12/72 87/11/73 
f 78/14/64 88/15/74 85/13/71 80/6/66 
f 84/10/70 75/16/61 79/7/65 83/9/69 
f 78/2/64 77/3/63 88/17/74 
f 81/5/67 80/6/66 85/13/71 
f 77/3/63 81/5/67 89/18/75 
f 78/14/64 80/6/66 79/7/65 75/19/61 
f 86/20/72 89/18/75 87/21/73 
f 86/12/72 85/13/71 88/22/74 
f 89/18/75 81/5/67 87/21/73 
f 86/20/72 88/17/74 77/3/63 89/18/75 
f 84/10/70 83/9/69 82/8/68 
f 81/5/67 77/3/63 84/10/70 82/8/68 
f 75/16/61 84/10/70 76/23/62 
# 48 polygons - 60 triangles

