# 3ds Max Wavefront OBJ Exporter v0.97b - (c)2007 guruware
# File Created: 29.07.2014 08:40:28

#
# object Gold_18
#

v  0.0000 0.0300 0.0752
v  0.0000 0.0300 0.0003
v  0.0750 0.0321 0.0002
v  0.0750 0.0300 0.0752
v  0.0657 0.0672 -0.0562
v  0.0093 0.0675 0.0002
v  0.0093 0.0675 0.0567
v  0.0657 0.0675 0.0483
v  0.0573 0.0675 0.0567
v  0.0675 0.0602 0.0603
v  0.0729 0.0416 -0.0706
v  0.0662 0.0341 -0.0748
v  0.0076 0.0603 -0.0597
v  -0.0000 0.0339 -0.0747
v  0.0750 0.0337 -0.0659
v  -0.0750 0.0300 -0.0747
v  -0.0000 0.0300 -0.0748
v  0.0000 0.0321 0.0002
v  -0.0750 0.0300 0.0003
v  -0.0657 0.0675 -0.0562
v  -0.0657 0.0675 0.0003
v  -0.0093 0.0672 0.0567
v  -0.0093 0.0675 -0.0478
v  -0.0177 0.0675 -0.0562
v  -0.0075 0.0602 -0.0598
v  -0.0674 0.0603 0.0602
v  -0.0088 0.0341 0.0752
v  -0.0021 0.0416 0.0711
v  -0.0750 0.0339 0.0753
v  0.0000 0.0337 0.0664
v  -0.1500 0.0300 0.0752
v  -0.1500 0.0300 0.0003
v  -0.0750 0.0321 0.0002
v  -0.0750 0.0300 0.0752
v  -0.0843 0.0672 -0.0562
v  -0.1407 0.0675 0.0002
v  -0.1407 0.0675 0.0567
v  -0.0843 0.0675 0.0483
v  -0.0927 0.0675 0.0567
v  -0.0825 0.0602 0.0603
v  -0.0771 0.0416 -0.0706
v  -0.0838 0.0341 -0.0748
v  -0.1424 0.0603 -0.0597
v  -0.1500 0.0339 -0.0747
v  -0.0750 0.0337 -0.0659
v  0.1500 0.0300 -0.0748
v  0.1500 0.0300 0.0002
v  0.0750 0.0321 0.0003
v  0.0750 0.0300 -0.0747
v  0.0843 0.0672 0.0567
v  0.1407 0.0675 0.0002
v  0.1407 0.0675 -0.0562
v  0.0843 0.0675 -0.0478
v  0.0927 0.0675 -0.0562
v  0.0825 0.0602 -0.0598
v  0.0771 0.0416 0.0711
v  0.0838 0.0341 0.0752
v  0.1424 0.0603 0.0602
v  0.1500 0.0339 0.0752
v  0.0750 0.0337 0.0664
v  0.1125 0.0675 0.0753
v  0.0375 0.0675 0.0752
v  0.0375 0.0696 0.0002
v  0.1125 0.0675 0.0003
v  0.1032 0.1050 0.0567
v  0.1032 0.1050 0.0003
v  0.0468 0.1047 -0.0562
v  0.0468 0.1050 0.0483
v  0.0552 0.1050 0.0567
v  0.0450 0.0977 0.0603
v  0.1049 0.0978 -0.0597
v  0.0463 0.0716 -0.0748
v  0.0396 0.0791 -0.0706
v  0.1125 0.0714 -0.0747
v  0.0375 0.0712 -0.0659
v  -0.0213 0.0675 -0.0697
v  0.0162 0.0675 -0.0048
v  -0.0487 0.0696 0.0327
v  -0.0862 0.0675 -0.0322
v  -0.0327 0.1050 -0.0524
v  -0.0816 0.1050 -0.0242
v  -0.1023 0.1047 0.0529
v  -0.0118 0.1050 0.0007
v  -0.0087 0.1050 -0.0108
v  -0.0005 0.0977 -0.0038
v  -0.1344 0.0978 0.0043
v  -0.1181 0.0716 0.0626
v  -0.1111 0.0791 0.0663
v  -0.1512 0.0714 0.0053
v  -0.1061 0.0712 0.0658
# 90 vertices

vn -0.6117 -0.4014 0.6817
vn -0.7737 -0.6333 -0.0206
vn 0.7971 -0.6035 -0.0199
vn 0.6129 -0.4057 0.6781
vn 0.4905 0.7736 -0.4013
vn -0.6113 0.7912 -0.0197
vn -0.5138 0.7480 0.4201
vn 0.6094 0.7877 0.0897
vn 0.0983 0.8472 0.5221
vn 0.6283 0.5327 0.5669
vn 0.6841 0.3156 -0.6576
vn 0.1786 -0.4792 -0.8593
vn -0.5459 0.7133 -0.4395
vn -0.6178 -0.3581 -0.7000
vn 0.7767 -0.5920 -0.2150
vn -0.6117 -0.4014 -0.6817
vn 0.6129 -0.4057 -0.6781
vn 0.7971 -0.6035 0.0199
vn -0.7737 -0.6333 0.0206
vn -0.5138 0.7480 -0.4201
vn -0.6113 0.7912 0.0197
vn 0.4905 0.7736 0.4013
vn 0.6094 0.7878 -0.0897
vn 0.0983 0.8472 -0.5221
vn 0.6283 0.5327 -0.5669
vn -0.5459 0.7133 0.4395
vn 0.1786 -0.4792 0.8593
vn 0.6841 0.3156 0.6576
vn -0.6178 -0.3581 0.7000
vn 0.7767 -0.5920 0.2150
vn 0.6094 0.7878 0.0897
vn 0.6117 -0.4014 -0.6817
vn 0.7737 -0.6333 0.0206
vn -0.7971 -0.6035 0.0199
vn -0.6129 -0.4057 -0.6781
vn -0.4905 0.7736 0.4013
vn 0.6113 0.7912 0.0197
vn 0.5138 0.7480 -0.4201
vn -0.6094 0.7878 -0.0897
vn -0.0983 0.8472 -0.5221
vn -0.6283 0.5327 -0.5669
vn -0.6841 0.3156 0.6576
vn -0.1786 -0.4792 0.8593
vn 0.5459 0.7133 0.4395
vn 0.6178 -0.3581 0.7000
vn -0.7767 -0.5920 0.2150
vn 0.6117 -0.4014 0.6817
vn -0.6129 -0.4057 0.6781
vn -0.7971 -0.6035 -0.0199
vn 0.7737 -0.6333 -0.0206
vn 0.5138 0.7480 0.4201
vn 0.6113 0.7912 -0.0197
vn -0.4905 0.7736 -0.4013
vn -0.6094 0.7878 0.0897
vn -0.0983 0.8472 0.5221
vn -0.6283 0.5327 0.5669
vn 0.5459 0.7133 -0.4395
vn -0.1786 -0.4792 -0.8593
vn -0.6841 0.3156 -0.6576
vn 0.6178 -0.3581 -0.7000
vn -0.7767 -0.5920 -0.2150
vn 0.2845 -0.4014 -0.8706
vn 0.8937 -0.4057 0.1918
vn 0.3813 -0.6035 0.7002
vn -0.4047 -0.6333 -0.6597
vn 0.1069 0.7480 -0.6550
vn -0.3227 0.7912 -0.5195
vn -0.1023 0.7736 0.6254
vn 0.3824 0.7878 0.4830
vn 0.5013 0.8472 -0.1759
vn 0.8051 0.5327 0.2607
vn -0.6536 0.7133 -0.2530
vn -0.6549 -0.4792 0.5844
vn -0.2275 0.3156 0.9212
vn -0.9152 -0.3581 -0.1850
vn 0.2021 -0.5920 0.7802
# 76 vertex normals

vt 0.9940 0.1384 0.0000
vt 0.9917 0.4982 0.0000
vt 0.6333 0.4944 0.0000
vt 0.6342 0.1353 0.0000
vt 0.4690 0.7727 0.0000
vt 0.2000 0.5040 0.0000
vt 0.1970 0.2357 0.0000
vt 0.4616 0.2729 0.0000
vt 0.4268 0.2365 0.0000
vt 0.4842 0.2086 0.0000
vt 0.4929 0.9153 0.0000
vt 0.4578 0.9539 0.0000
vt 0.1878 0.7906 0.0000
vt 0.0167 0.5126 0.0000
vt 0.0609 0.8718 0.0000
vt 0.1631 0.0351 0.0000
vt 0.9862 0.8596 0.0000
vt 0.6345 0.8082 0.0000
vt 0.0088 0.1513 0.0000
vt 0.6644 0.8554 0.0000
vt 0.6056 0.8374 0.0000
vt 0.1417 0.9331 0.0000
vt 0.5234 0.0476 0.0000
# 23 texture coords

g Gold_18
s 1
f 1/1/1 2/2/2 3/3/3 4/4/4 
f 5/5/5 6/6/6 7/7/7 8/8/8 
f 9/9/9 8/8/8 7/7/7 
f 4/4/4 3/3/3 10/10/10 
f 5/5/5 11/11/11 12/12/12 13/13/13 
f 2/14/2 6/6/6 13/13/13 14/15/14 
f 10/10/10 9/9/9 7/7/7 1/16/1 
f 2/2/2 14/17/14 3/3/3 
f 5/5/5 13/13/13 6/6/6 
f 3/3/3 15/18/15 5/5/5 
f 2/14/2 1/19/1 7/7/7 6/6/6 
f 12/20/12 11/21/11 15/18/15 
f 12/12/12 14/22/14 13/13/13 
f 15/18/15 11/21/11 5/5/5 
f 12/20/12 15/18/15 3/3/3 14/17/14 
f 10/10/10 8/8/8 9/9/9 
f 5/5/5 8/8/8 10/10/10 3/3/3 
f 1/16/1 4/23/4 10/10/10 
f 16/1/16 17/4/17 18/3/18 19/2/19 
f 20/7/20 21/6/21 22/5/22 23/8/23 
f 24/9/24 20/7/20 23/8/23 
f 17/4/17 25/10/25 18/3/18 
f 22/5/22 26/13/26 27/12/27 28/11/28 
f 19/14/19 29/15/29 26/13/26 21/6/21 
f 25/10/25 16/16/16 20/7/20 24/9/24 
f 19/2/19 18/3/18 29/17/29 
f 22/5/22 21/6/21 26/13/26 
f 18/3/18 22/5/22 30/18/30 
f 19/14/19 21/6/21 20/7/20 16/19/16 
f 27/20/27 30/18/30 28/21/28 
f 27/12/27 26/13/26 29/22/29 
f 30/18/30 22/5/22 28/21/28 
f 27/20/27 29/17/29 18/3/18 30/18/30 
f 25/10/25 24/9/24 23/8/23 
f 22/5/22 18/3/18 25/10/25 23/8/23 
f 16/16/16 25/10/25 17/23/17 
f 31/1/1 32/2/2 33/3/3 34/4/4 
f 35/5/5 36/6/6 37/7/7 38/8/31 
f 39/9/9 38/8/31 37/7/7 
f 34/4/4 33/3/3 40/10/10 
f 35/5/5 41/11/11 42/12/12 43/13/13 
f 32/14/2 36/6/6 43/13/13 44/15/14 
f 40/10/10 39/9/9 37/7/7 31/16/1 
f 32/2/2 44/17/14 33/3/3 
f 35/5/5 43/13/13 36/6/6 
f 33/3/3 45/18/15 35/5/5 
f 32/14/2 31/19/1 37/7/7 36/6/6 
f 42/20/12 41/21/11 45/18/15 
f 42/12/12 44/22/14 43/13/13 
f 45/18/15 41/21/11 35/5/5 
f 42/20/12 45/18/15 33/3/3 44/17/14 
f 40/10/10 38/8/31 39/9/9 
f 35/5/5 38/8/31 40/10/10 33/3/3 
f 31/16/1 34/23/4 40/10/10 
f 46/1/32 47/2/33 48/3/34 49/4/35 
f 50/5/36 51/6/37 52/7/38 53/8/39 
f 54/9/40 53/8/39 52/7/38 
f 49/4/35 48/3/34 55/10/41 
f 50/5/36 56/11/42 57/12/43 58/13/44 
f 47/14/33 51/6/37 58/13/44 59/15/45 
f 55/10/41 54/9/40 52/7/38 46/16/32 
f 47/2/33 59/17/45 48/3/34 
f 50/5/36 58/13/44 51/6/37 
f 48/3/34 60/18/46 50/5/36 
f 47/14/33 46/19/32 52/7/38 51/6/37 
f 57/20/43 56/21/42 60/18/46 
f 57/12/43 59/22/45 58/13/44 
f 60/18/46 56/21/42 50/5/36 
f 57/20/43 60/18/46 48/3/34 59/17/45 
f 55/10/41 53/8/39 54/9/40 
f 50/5/36 53/8/39 55/10/41 48/3/34 
f 46/16/32 49/23/35 55/10/41 
f 61/1/47 62/4/48 63/3/49 64/2/50 
f 65/7/51 66/6/52 67/5/53 68/8/54 
f 69/9/55 65/7/51 68/8/54 
f 62/4/48 70/10/56 63/3/49 
f 67/5/53 71/13/57 72/12/58 73/11/59 
f 64/14/50 74/15/60 71/13/57 66/6/52 
f 70/10/56 61/16/47 65/7/51 69/9/55 
f 64/2/50 63/3/49 74/17/60 
f 67/5/53 66/6/52 71/13/57 
f 63/3/49 67/5/53 75/18/61 
f 64/14/50 66/6/52 65/7/51 61/19/47 
f 72/20/58 75/18/61 73/21/59 
f 72/12/58 71/13/57 74/22/60 
f 75/18/61 67/5/53 73/21/59 
f 72/20/58 74/17/60 63/3/49 75/18/61 
f 70/10/56 69/9/55 68/8/54 
f 67/5/53 63/3/49 70/10/56 68/8/54 
f 61/16/47 70/10/56 62/23/48 
f 76/1/62 77/4/63 78/3/64 79/2/65 
f 80/7/66 81/6/67 82/5/68 83/8/69 
f 84/9/70 80/7/66 83/8/69 
f 77/4/63 85/10/71 78/3/64 
f 82/5/68 86/13/72 87/12/73 88/11/74 
f 79/14/65 89/15/75 86/13/72 81/6/67 
f 85/10/71 76/16/62 80/7/66 84/9/70 
f 79/2/65 78/3/64 89/17/75 
f 82/5/68 81/6/67 86/13/72 
f 78/3/64 82/5/68 90/18/76 
f 79/14/65 81/6/67 80/7/66 76/19/62 
f 87/20/73 90/18/76 88/21/74 
f 87/12/73 86/13/72 89/22/75 
f 90/18/76 82/5/68 88/21/74 
f 87/20/73 89/17/75 78/3/64 90/18/76 
f 85/10/71 84/9/70 83/8/69 
f 82/5/68 78/3/64 85/10/71 83/8/69 
f 76/16/62 85/10/71 77/23/63 
# 48 polygons - 60 triangles

