# 3ds Max Wavefront OBJ Exporter v0.97b - (c)2007 guruware
# File Created: 29.07.2014 08:40:28

#
# object Gold_08
#

v  0.0375 0.0675 0.0750
v  -0.0375 0.0675 0.0750
v  -0.0375 0.0696 -0.0000
v  0.0375 0.0675 0.0000
v  0.0282 0.1050 0.0564
v  0.0282 0.1050 0.0000
v  -0.0282 0.1047 -0.0564
v  -0.0282 0.1050 0.0480
v  -0.0198 0.1050 0.0564
v  -0.0300 0.0977 0.0601
v  0.0299 0.0978 -0.0599
v  -0.0287 0.0716 -0.0750
v  -0.0354 0.0791 -0.0708
v  0.0375 0.0714 -0.0750
v  -0.0375 0.0712 -0.0662
v  -0.0750 0.0300 0.0750
v  -0.0750 0.0300 -0.0000
v  -0.0000 0.0321 0.0000
v  -0.0000 0.0300 0.0750
v  -0.0093 0.0672 -0.0564
v  -0.0657 0.0675 -0.0000
v  -0.0657 0.0675 0.0564
v  -0.0093 0.0675 0.0481
v  -0.0177 0.0675 0.0564
v  -0.0075 0.0602 0.0601
v  -0.0021 0.0416 -0.0708
v  -0.0088 0.0341 -0.0750
v  -0.0674 0.0603 -0.0599
v  -0.0750 0.0339 -0.0750
v  -0.0000 0.0337 -0.0662
v  0.0750 0.0300 -0.0750
v  0.0750 0.0300 0.0000
v  -0.0000 0.0300 -0.0750
v  0.0093 0.0672 0.0564
v  0.0657 0.0675 0.0000
v  0.0657 0.0675 -0.0564
v  0.0093 0.0675 -0.0480
v  0.0177 0.0675 -0.0564
v  0.0075 0.0602 -0.0601
v  0.0021 0.0416 0.0708
v  0.0088 0.0341 0.0750
v  0.0674 0.0603 0.0599
v  0.0750 0.0339 0.0750
v  -0.0000 0.0337 0.0662
# 44 vertices

vn 0.6117 -0.4014 0.6817
vn -0.6129 -0.4057 0.6781
vn -0.7971 -0.6035 -0.0199
vn 0.7737 -0.6333 -0.0206
vn 0.5138 0.7480 0.4201
vn 0.6113 0.7912 -0.0197
vn -0.4905 0.7736 -0.4013
vn -0.6094 0.7878 0.0897
vn -0.0983 0.8472 0.5221
vn -0.6283 0.5327 0.5669
vn 0.5459 0.7133 -0.4395
vn -0.1786 -0.4792 -0.8593
vn -0.6841 0.3156 -0.6576
vn 0.6178 -0.3581 -0.7000
vn -0.7767 -0.5920 -0.2150
vn -0.6117 -0.4014 0.6817
vn -0.7737 -0.6333 -0.0206
vn 0.7971 -0.6035 -0.0199
vn 0.6129 -0.4057 0.6781
vn 0.4905 0.7736 -0.4013
vn -0.6113 0.7912 -0.0197
vn -0.5138 0.7480 0.4201
vn 0.6094 0.7878 0.0897
vn 0.0983 0.8472 0.5221
vn 0.6283 0.5327 0.5669
vn 0.6841 0.3156 -0.6576
vn 0.1786 -0.4792 -0.8593
vn -0.5459 0.7133 -0.4395
vn -0.6178 -0.3581 -0.7000
vn 0.7767 -0.5920 -0.2150
vn 0.6117 -0.4014 -0.6817
vn 0.7737 -0.6333 0.0206
vn -0.7971 -0.6035 0.0199
vn -0.6129 -0.4057 -0.6781
vn -0.4905 0.7736 0.4013
vn 0.6113 0.7912 0.0197
vn 0.5138 0.7480 -0.4201
vn -0.6094 0.7878 -0.0897
vn -0.0983 0.8472 -0.5221
vn -0.6283 0.5327 -0.5669
vn -0.6841 0.3156 0.6576
vn -0.1786 -0.4792 0.8593
vn 0.5459 0.7133 0.4395
vn 0.6178 -0.3581 0.7000
vn -0.7767 -0.5920 0.2150
# 45 vertex normals

vt 0.9940 0.1384 0.0000
vt 0.6342 0.1353 0.0000
vt 0.6333 0.4944 0.0000
vt 0.9917 0.4982 0.0000
vt 0.1970 0.2357 0.0000
vt 0.2000 0.5040 0.0000
vt 0.4690 0.7727 0.0000
vt 0.4616 0.2729 0.0000
vt 0.4268 0.2365 0.0000
vt 0.4842 0.2086 0.0000
vt 0.1878 0.7906 0.0000
vt 0.4578 0.9539 0.0000
vt 0.4929 0.9153 0.0000
vt 0.0167 0.5126 0.0000
vt 0.0609 0.8718 0.0000
vt 0.1631 0.0351 0.0000
vt 0.9862 0.8596 0.0000
vt 0.6345 0.8082 0.0000
vt 0.0088 0.1513 0.0000
vt 0.6644 0.8554 0.0000
vt 0.6056 0.8374 0.0000
vt 0.1417 0.9331 0.0000
vt 0.5234 0.0476 0.0000
# 23 texture coords

g Gold_08
s 1
f 1/1/1 2/2/2 3/3/3 4/4/4 
f 5/5/5 6/6/6 7/7/7 8/8/8 
f 9/9/9 5/5/5 8/8/8 
f 2/2/2 10/10/10 3/3/3 
f 7/7/7 11/11/11 12/12/12 13/13/13 
f 4/14/4 14/15/14 11/11/11 6/6/6 
f 10/10/10 1/16/1 5/5/5 9/9/9 
f 4/4/4 3/3/3 14/17/14 
f 7/7/7 6/6/6 11/11/11 
f 3/3/3 7/7/7 15/18/15 
f 4/14/4 6/6/6 5/5/5 1/19/1 
f 12/20/12 15/18/15 13/21/13 
f 12/12/12 11/11/11 14/22/14 
f 15/18/15 7/7/7 13/21/13 
f 12/20/12 14/17/14 3/3/3 15/18/15 
f 10/10/10 9/9/9 8/8/8 
f 7/7/7 3/3/3 10/10/10 8/8/8 
f 1/16/1 10/10/10 2/23/2 
f 16/1/16 17/4/17 18/3/18 19/2/19 
f 20/7/20 21/6/21 22/5/22 23/8/23 
f 24/9/24 23/8/23 22/5/22 
f 19/2/19 18/3/18 25/10/25 
f 20/7/20 26/13/26 27/12/27 28/11/28 
f 17/14/17 21/6/21 28/11/28 29/15/29 
f 25/10/25 24/9/24 22/5/22 16/16/16 
f 17/4/17 29/17/29 18/3/18 
f 20/7/20 28/11/28 21/6/21 
f 18/3/18 30/18/30 20/7/20 
f 17/14/17 16/19/16 22/5/22 21/6/21 
f 27/20/27 26/21/26 30/18/30 
f 27/12/27 29/22/29 28/11/28 
f 30/18/30 26/21/26 20/7/20 
f 27/20/27 30/18/30 18/3/18 29/17/29 
f 25/10/25 23/8/23 24/9/24 
f 20/7/20 23/8/23 25/10/25 18/3/18 
f 16/16/16 19/23/19 25/10/25 
f 31/1/31 32/4/32 18/3/33 33/2/34 
f 34/7/35 35/6/36 36/5/37 37/8/38 
f 38/9/39 37/8/38 36/5/37 
f 33/2/34 18/3/33 39/10/40 
f 34/7/35 40/13/41 41/12/42 42/11/43 
f 32/14/32 35/6/36 42/11/43 43/15/44 
f 39/10/40 38/9/39 36/5/37 31/16/31 
f 32/4/32 43/17/44 18/3/33 
f 34/7/35 42/11/43 35/6/36 
f 18/3/33 44/18/45 34/7/35 
f 32/14/32 31/19/31 36/5/37 35/6/36 
f 41/20/42 40/21/41 44/18/45 
f 41/12/42 43/22/44 42/11/43 
f 44/18/45 40/21/41 34/7/35 
f 41/20/42 44/18/45 18/3/33 43/17/44 
f 39/10/40 37/8/38 38/9/39 
f 34/7/35 37/8/38 39/10/40 18/3/33 
f 31/16/31 33/23/34 39/10/40 
# 24 polygons - 30 triangles

