# 3ds Max Wavefront OBJ Exporter v0.97b - (c)2007 guruware
# File Created: 29.07.2014 08:40:30

#
# object Gold_13
#

v  -0.0737 0.0675 -0.0399
v  -0.0123 0.0675 -0.0829
v  0.0307 0.0696 -0.0215
v  -0.0307 0.0675 0.0215
v  -0.0555 0.1050 -0.0300
v  -0.0231 0.1050 0.0162
v  0.0555 0.1047 0.0300
v  -0.0044 0.1050 -0.0555
v  -0.0161 0.1050 -0.0576
v  -0.0099 0.0977 -0.0664
v  0.0099 0.0978 0.0662
v  0.0665 0.0716 0.0450
v  0.0696 0.0791 0.0377
v  0.0123 0.0714 0.0829
v  0.0687 0.0712 0.0327
v  -0.0756 0.0675 0.0829
v  -0.1186 0.0675 0.0215
v  -0.0572 0.0696 -0.0215
v  -0.0141 0.0675 0.0399
v  -0.0971 0.1047 -0.0624
v  -0.1110 0.1050 0.0162
v  -0.0786 0.1050 0.0624
v  -0.0372 0.1050 0.0232
v  -0.0393 0.1050 0.0349
v  -0.0288 0.0977 0.0320
v  -0.0995 0.0791 -0.0783
v  -0.1074 0.0716 -0.0779
v  -0.1467 0.0978 -0.0319
v  -0.1616 0.0714 -0.0399
v  -0.0951 0.0712 -0.0757
v  0.1019 0.0675 0.0829
v  0.0589 0.0675 0.0215
v  0.1204 0.0696 -0.0215
v  0.1634 0.0675 0.0399
v  0.0804 0.1047 -0.0624
v  0.0665 0.1050 0.0162
v  0.0989 0.1050 0.0624
v  0.1403 0.1050 0.0232
v  0.1383 0.1050 0.0349
v  0.1487 0.0977 0.0320
v  0.0780 0.0791 -0.0783
v  0.0701 0.0716 -0.0779
v  0.0308 0.0978 -0.0319
v  0.0159 0.0714 -0.0399
v  0.0824 0.0712 -0.0757
v  0.1500 0.0300 -0.0750
v  0.1500 0.0300 -0.0000
v  0.0750 0.0321 -0.0000
v  0.0750 0.0300 -0.0750
v  0.0843 0.0672 0.0564
v  0.1407 0.0675 -0.0000
v  0.1407 0.0675 -0.0564
v  0.0843 0.0675 -0.0481
v  0.0927 0.0675 -0.0564
v  0.0825 0.0602 -0.0601
v  0.0771 0.0416 0.0708
v  0.0838 0.0341 0.0750
v  0.1424 0.0603 0.0599
v  0.1500 0.0339 0.0750
v  0.0750 0.0337 0.0662
v  0.0000 0.0300 0.0750
v  0.0000 0.0300 -0.0000
v  0.0750 0.0300 0.0750
v  0.0657 0.0672 -0.0564
v  0.0093 0.0675 -0.0000
v  0.0093 0.0675 0.0564
v  0.0657 0.0675 0.0480
v  0.0573 0.0675 0.0564
v  0.0675 0.0602 0.0601
v  0.0729 0.0416 -0.0708
v  0.0662 0.0341 -0.0750
v  0.0076 0.0603 -0.0599
v  -0.0000 0.0339 -0.0750
v  0.0750 0.0337 -0.0662
v  -0.0750 0.0300 -0.0750
v  -0.0000 0.0300 -0.0750
v  0.0000 0.0321 -0.0000
v  -0.0750 0.0300 -0.0000
v  -0.0657 0.0675 -0.0564
v  -0.0657 0.0675 -0.0000
v  -0.0093 0.0672 0.0564
v  -0.0093 0.0675 -0.0481
v  -0.0177 0.0675 -0.0564
v  -0.0075 0.0602 -0.0601
v  -0.0674 0.0603 0.0599
v  -0.0088 0.0341 0.0750
v  -0.0021 0.0416 0.0708
v  -0.0750 0.0339 0.0750
v  0.0000 0.0337 0.0662
v  -0.1500 0.0300 0.0750
v  -0.1500 0.0300 -0.0000
v  -0.0750 0.0321 -0.0000
v  -0.0750 0.0300 0.0750
v  -0.0843 0.0672 -0.0564
v  -0.1407 0.0675 -0.0000
v  -0.1407 0.0675 0.0564
v  -0.0843 0.0675 0.0480
v  -0.0927 0.0675 0.0564
v  -0.0825 0.0602 0.0601
v  -0.0771 0.0416 -0.0708
v  -0.0838 0.0341 -0.0750
v  -0.1424 0.0603 -0.0599
v  -0.1500 0.0339 -0.0750
v  -0.0750 0.0337 -0.0662
# 104 vertices

vn -0.8921 -0.4014 -0.2075
vn 0.1132 -0.4057 -0.9070
vn 0.6643 -0.6035 -0.4409
vn -0.6219 -0.6333 0.4606
vn -0.6618 0.7480 -0.0494
vn -0.4894 0.7912 0.3668
vn 0.6319 0.7736 0.0474
vn 0.4478 0.7878 -0.4230
vn -0.2190 0.8472 -0.4841
vn 0.1895 0.5327 -0.8248
vn -0.1951 0.7133 0.6732
vn 0.6392 -0.4792 0.6015
vn 0.9375 0.3156 0.1463
vn -0.1046 -0.3581 0.9278
vn 0.7596 -0.5920 -0.2694
vn -0.1101 -0.4014 0.9093
vn -0.6456 -0.6333 0.4269
vn 0.6415 -0.6035 -0.4735
vn 0.8910 -0.4057 0.2039
vn 0.1716 0.7736 -0.6100
vn -0.5121 0.7912 0.3345
vn -0.1799 0.7480 0.6388
vn 0.5506 0.7878 -0.2761
vn 0.3800 0.8472 0.3713
vn 0.8399 0.5327 0.1040
vn 0.1832 0.3156 -0.9310
vn -0.3466 -0.4792 -0.8064
vn -0.6993 0.7133 -0.0469
vn -0.9076 -0.3581 -0.2191
vn 0.5129 -0.5920 -0.6217
vn 0.5506 0.7877 -0.2761
vn 0.6117 -0.4014 -0.6817
vn 0.7737 -0.6333 0.0206
vn -0.7971 -0.6035 0.0199
vn -0.6129 -0.4057 -0.6781
vn -0.4905 0.7736 0.4013
vn 0.6113 0.7912 0.0197
vn 0.5138 0.7480 -0.4201
vn -0.6094 0.7878 -0.0897
vn -0.0983 0.8472 -0.5221
vn -0.6283 0.5327 -0.5669
vn -0.6841 0.3156 0.6576
vn -0.1786 -0.4792 0.8593
vn 0.5459 0.7133 0.4395
vn 0.6178 -0.3581 0.7000
vn -0.7767 -0.5920 0.2150
vn -0.6117 -0.4014 0.6817
vn -0.7737 -0.6333 -0.0206
vn 0.7971 -0.6035 -0.0199
vn 0.6129 -0.4057 0.6781
vn 0.4905 0.7736 -0.4013
vn -0.6113 0.7912 -0.0197
vn -0.5138 0.7480 0.4201
vn 0.6094 0.7878 0.0897
vn 0.0983 0.8472 0.5221
vn 0.6283 0.5327 0.5669
vn 0.6841 0.3156 -0.6576
vn 0.1786 -0.4792 -0.8593
vn -0.5459 0.7133 -0.4395
vn -0.6178 -0.3581 -0.7000
vn 0.7767 -0.5920 -0.2150
vn -0.6117 -0.4014 -0.6817
vn 0.6129 -0.4057 -0.6781
vn 0.7971 -0.6035 0.0199
vn -0.7737 -0.6333 0.0206
vn -0.5138 0.7480 -0.4201
vn -0.6113 0.7912 0.0197
vn 0.4905 0.7736 0.4013
vn 0.6094 0.7878 -0.0897
vn 0.0983 0.8472 -0.5221
vn 0.6283 0.5327 -0.5669
vn -0.5459 0.7133 0.4395
vn 0.1786 -0.4792 0.8593
vn 0.6841 0.3156 0.6576
vn -0.6178 -0.3581 0.7000
vn 0.7767 -0.5920 0.2150
vn 0.6094 0.7877 0.0897
# 77 vertex normals

vt 0.9940 0.1384 0.0000
vt 0.6342 0.1353 0.0000
vt 0.6333 0.4944 0.0000
vt 0.9917 0.4982 0.0000
vt 0.1970 0.2357 0.0000
vt 0.2000 0.5040 0.0000
vt 0.4690 0.7727 0.0000
vt 0.4616 0.2729 0.0000
vt 0.4268 0.2365 0.0000
vt 0.4842 0.2086 0.0000
vt 0.1878 0.7906 0.0000
vt 0.4578 0.9539 0.0000
vt 0.4929 0.9153 0.0000
vt 0.0167 0.5126 0.0000
vt 0.0609 0.8718 0.0000
vt 0.1631 0.0351 0.0000
vt 0.9862 0.8596 0.0000
vt 0.6345 0.8082 0.0000
vt 0.0088 0.1513 0.0000
vt 0.6644 0.8554 0.0000
vt 0.6056 0.8374 0.0000
vt 0.1417 0.9331 0.0000
vt 0.5234 0.0476 0.0000
# 23 texture coords

g Gold_13
s 1
f 1/1/1 2/2/2 3/3/3 4/4/4 
f 5/5/5 6/6/6 7/7/7 8/8/8 
f 9/9/9 5/5/5 8/8/8 
f 2/2/2 10/10/10 3/3/3 
f 7/7/7 11/11/11 12/12/12 13/13/13 
f 4/14/4 14/15/14 11/11/11 6/6/6 
f 10/10/10 1/16/1 5/5/5 9/9/9 
f 4/4/4 3/3/3 14/17/14 
f 7/7/7 6/6/6 11/11/11 
f 3/3/3 7/7/7 15/18/15 
f 4/14/4 6/6/6 5/5/5 1/19/1 
f 12/20/12 15/18/15 13/21/13 
f 12/12/12 11/11/11 14/22/14 
f 15/18/15 7/7/7 13/21/13 
f 12/20/12 14/17/14 3/3/3 15/18/15 
f 10/10/10 9/9/9 8/8/8 
f 7/7/7 3/3/3 10/10/10 8/8/8 
f 1/16/1 10/10/10 2/23/2 
f 16/1/16 17/4/17 18/3/18 19/2/19 
f 20/7/20 21/6/21 22/5/22 23/8/23 
f 24/9/24 23/8/23 22/5/22 
f 19/2/19 18/3/18 25/10/25 
f 20/7/20 26/13/26 27/12/27 28/11/28 
f 17/14/17 21/6/21 28/11/28 29/15/29 
f 25/10/25 24/9/24 22/5/22 16/16/16 
f 17/4/17 29/17/29 18/3/18 
f 20/7/20 28/11/28 21/6/21 
f 18/3/18 30/18/30 20/7/20 
f 17/14/17 16/19/16 22/5/22 21/6/21 
f 27/20/27 26/21/26 30/18/30 
f 27/12/27 29/22/29 28/11/28 
f 30/18/30 26/21/26 20/7/20 
f 27/20/27 30/18/30 18/3/18 29/17/29 
f 25/10/25 23/8/23 24/9/24 
f 20/7/20 23/8/23 25/10/25 18/3/18 
f 16/16/16 19/23/19 25/10/25 
f 31/1/16 32/4/17 33/3/18 34/2/19 
f 35/7/20 36/6/21 37/5/22 38/8/31 
f 39/9/24 38/8/31 37/5/22 
f 34/2/19 33/3/18 40/10/25 
f 35/7/20 41/13/26 42/12/27 43/11/28 
f 32/14/17 36/6/21 43/11/28 44/15/29 
f 40/10/25 39/9/24 37/5/22 31/16/16 
f 32/4/17 44/17/29 33/3/18 
f 35/7/20 43/11/28 36/6/21 
f 33/3/18 45/18/30 35/7/20 
f 32/14/17 31/19/16 37/5/22 36/6/21 
f 42/20/27 41/21/26 45/18/30 
f 42/12/27 44/22/29 43/11/28 
f 45/18/30 41/21/26 35/7/20 
f 42/20/27 45/18/30 33/3/18 44/17/29 
f 40/10/25 38/8/31 39/9/24 
f 35/7/20 38/8/31 40/10/25 33/3/18 
f 31/16/16 34/23/19 40/10/25 
f 46/1/32 47/4/33 48/3/34 49/2/35 
f 50/7/36 51/6/37 52/5/38 53/8/39 
f 54/9/40 53/8/39 52/5/38 
f 49/2/35 48/3/34 55/10/41 
f 50/7/36 56/13/42 57/12/43 58/11/44 
f 47/14/33 51/6/37 58/11/44 59/15/45 
f 55/10/41 54/9/40 52/5/38 46/16/32 
f 47/4/33 59/17/45 48/3/34 
f 50/7/36 58/11/44 51/6/37 
f 48/3/34 60/18/46 50/7/36 
f 47/14/33 46/19/32 52/5/38 51/6/37 
f 57/20/43 56/21/42 60/18/46 
f 57/12/43 59/22/45 58/11/44 
f 60/18/46 56/21/42 50/7/36 
f 57/20/43 60/18/46 48/3/34 59/17/45 
f 55/10/41 53/8/39 54/9/40 
f 50/7/36 53/8/39 55/10/41 48/3/34 
f 46/16/32 49/23/35 55/10/41 
f 61/1/47 62/4/48 48/3/49 63/2/50 
f 64/7/51 65/6/52 66/5/53 67/8/54 
f 68/9/55 67/8/54 66/5/53 
f 63/2/50 48/3/49 69/10/56 
f 64/7/51 70/13/57 71/12/58 72/11/59 
f 62/14/48 65/6/52 72/11/59 73/15/60 
f 69/10/56 68/9/55 66/5/53 61/16/47 
f 62/4/48 73/17/60 48/3/49 
f 64/7/51 72/11/59 65/6/52 
f 48/3/49 74/18/61 64/7/51 
f 62/14/48 61/19/47 66/5/53 65/6/52 
f 71/20/58 70/21/57 74/18/61 
f 71/12/58 73/22/60 72/11/59 
f 74/18/61 70/21/57 64/7/51 
f 71/20/58 74/18/61 48/3/49 73/17/60 
f 69/10/56 67/8/54 68/9/55 
f 64/7/51 67/8/54 69/10/56 48/3/49 
f 61/16/47 63/23/50 69/10/56 
f 75/1/62 76/2/63 77/3/64 78/4/65 
f 79/5/66 80/6/67 81/7/68 82/8/69 
f 83/9/70 79/5/66 82/8/69 
f 76/2/63 84/10/71 77/3/64 
f 81/7/68 85/11/72 86/12/73 87/13/74 
f 78/14/65 88/15/75 85/11/72 80/6/67 
f 84/10/71 75/16/62 79/5/66 83/9/70 
f 78/4/65 77/3/64 88/17/75 
f 81/7/68 80/6/67 85/11/72 
f 77/3/64 81/7/68 89/18/76 
f 78/14/65 80/6/67 79/5/66 75/19/62 
f 86/20/73 89/18/76 87/21/74 
f 86/12/73 85/11/72 88/22/75 
f 89/18/76 81/7/68 87/21/74 
f 86/20/73 88/17/75 77/3/64 89/18/76 
f 84/10/71 83/9/70 82/8/69 
f 81/7/68 77/3/64 84/10/71 82/8/69 
f 75/16/62 84/10/71 76/23/63 
f 90/1/47 91/4/48 92/3/49 93/2/50 
f 94/7/51 95/6/52 96/5/53 97/8/77 
f 98/9/55 97/8/77 96/5/53 
f 93/2/50 92/3/49 99/10/56 
f 94/7/51 100/13/57 101/12/58 102/11/59 
f 91/14/48 95/6/52 102/11/59 103/15/60 
f 99/10/56 98/9/55 96/5/53 90/16/47 
f 91/4/48 103/17/60 92/3/49 
f 94/7/51 102/11/59 95/6/52 
f 92/3/49 104/18/61 94/7/51 
f 91/14/48 90/19/47 96/5/53 95/6/52 
f 101/20/58 100/21/57 104/18/61 
f 101/12/58 103/22/60 102/11/59 
f 104/18/61 100/21/57 94/7/51 
f 101/20/58 104/18/61 92/3/49 103/17/60 
f 99/10/56 97/8/77 98/9/55 
f 94/7/51 97/8/77 99/10/56 92/3/49 
f 90/16/47 93/23/50 99/10/56 
# 56 polygons - 70 triangles

