# 3ds Max Wavefront OBJ Exporter v0.97b - (c)2007 guruware
# File Created: 29.07.2014 08:40:31

#
# object Gold_09
#

v  -0.0375 0.0300 0.0750
v  -0.0375 0.0300 0.0000
v  0.0375 0.0321 -0.0000
v  0.0375 0.0300 0.0750
v  0.0282 0.0672 -0.0564
v  -0.0282 0.0675 0.0000
v  -0.0282 0.0675 0.0564
v  0.0282 0.0675 0.0481
v  0.0198 0.0675 0.0564
v  0.0300 0.0602 0.0601
v  0.0354 0.0416 -0.0708
v  0.0287 0.0341 -0.0750
v  -0.0299 0.0603 -0.0599
v  -0.0375 0.0339 -0.0750
v  0.0375 0.0337 -0.0662
v  -0.0375 0.0300 -0.0750
v  -0.0375 0.0300 -0.0000
v  -0.1125 0.0321 0.0000
v  -0.1125 0.0300 -0.0750
v  -0.1032 0.0672 0.0564
v  -0.0468 0.0675 -0.0000
v  -0.0468 0.0675 -0.0564
v  -0.1032 0.0675 -0.0481
v  -0.0948 0.0675 -0.0564
v  -0.1050 0.0602 -0.0601
v  -0.1104 0.0416 0.0708
v  -0.1037 0.0341 0.0750
v  -0.0451 0.0603 0.0599
v  -0.0375 0.0339 0.0750
v  -0.1125 0.0337 0.0662
v  0.1125 0.0300 -0.0750
v  0.1125 0.0300 -0.0000
v  0.0375 0.0321 0.0000
v  0.0375 0.0300 -0.0750
v  0.0468 0.0672 0.0564
v  0.1032 0.0675 -0.0000
v  0.1032 0.0675 -0.0564
v  0.0468 0.0675 -0.0481
v  0.0552 0.0675 -0.0564
v  0.0450 0.0602 -0.0601
v  0.0396 0.0416 0.0708
v  0.0463 0.0341 0.0750
v  0.1049 0.0603 0.0599
v  0.1125 0.0339 0.0750
v  0.0375 0.0337 0.0662
v  0.1320 0.0675 0.0265
v  0.0790 0.0675 0.0795
v  0.0260 0.0696 0.0265
v  0.0790 0.0675 -0.0265
v  0.1124 0.1050 0.0200
v  0.0725 0.1050 -0.0200
v  -0.0074 0.1047 -0.0200
v  0.0665 0.1050 0.0539
v  0.0784 0.1050 0.0539
v  0.0737 0.0977 0.0637
v  0.0313 0.0978 -0.0635
v  -0.0208 0.0716 -0.0328
v  -0.0226 0.0791 -0.0250
v  0.0260 0.0714 -0.0795
v  -0.0208 0.0712 -0.0203
v  -0.0790 0.0675 -0.0795
v  -0.0260 0.0675 -0.0265
v  -0.0790 0.0696 0.0265
v  -0.1320 0.0675 -0.0265
v  -0.0325 0.1047 0.0599
v  -0.0325 0.1050 -0.0200
v  -0.0725 0.1050 -0.0599
v  -0.1064 0.1050 -0.0140
v  -0.1064 0.1050 -0.0259
v  -0.1162 0.0977 -0.0212
v  -0.0275 0.0791 0.0751
v  -0.0197 0.0716 0.0733
v  0.0110 0.0978 0.0212
v  0.0270 0.0714 0.0265
v  -0.0322 0.0712 0.0733
# 75 vertices

vn -0.6117 -0.4014 0.6817
vn -0.7737 -0.6333 -0.0206
vn 0.7971 -0.6035 -0.0199
vn 0.6129 -0.4057 0.6781
vn 0.4905 0.7736 -0.4013
vn -0.6113 0.7912 -0.0197
vn -0.5138 0.7480 0.4201
vn 0.6094 0.7878 0.0897
vn 0.0983 0.8472 0.5221
vn 0.6283 0.5327 0.5669
vn 0.6841 0.3156 -0.6576
vn 0.1786 -0.4792 -0.8593
vn -0.5459 0.7133 -0.4395
vn -0.6178 -0.3581 -0.7000
vn 0.7767 -0.5920 -0.2150
vn 0.6117 -0.4014 -0.6817
vn 0.7737 -0.6333 0.0206
vn -0.7971 -0.6035 0.0199
vn -0.6129 -0.4057 -0.6781
vn -0.4905 0.7736 0.4013
vn 0.6113 0.7912 0.0197
vn 0.5138 0.7480 -0.4201
vn -0.6094 0.7878 -0.0897
vn -0.0983 0.8472 -0.5221
vn -0.6283 0.5327 -0.5669
vn -0.6841 0.3156 0.6576
vn -0.1786 -0.4792 0.8593
vn 0.5459 0.7133 0.4395
vn 0.6178 -0.3581 0.7000
vn -0.7767 -0.5920 0.2150
vn 0.9146 -0.4014 0.0495
vn 0.0461 -0.4057 0.9129
vn -0.5777 -0.6035 0.5496
vn 0.5325 -0.6333 -0.5616
vn 0.6604 0.7480 -0.0663
vn 0.4183 0.7912 -0.4462
vn -0.6306 0.7736 0.0630
vn -0.3675 0.7878 0.4943
vn 0.2997 0.8472 0.4387
vn -0.0434 0.5327 0.8452
vn 0.0752 0.7133 -0.6968
vn -0.7339 -0.4792 -0.4813
vn -0.9487 0.3156 0.0187
vn -0.0581 -0.3581 -0.9319
vn -0.7013 -0.5920 0.3972
vn -0.0495 -0.4014 -0.9146
vn 0.5616 -0.6333 -0.5325
vn -0.5496 -0.6035 0.5777
vn -0.9129 -0.4057 -0.0461
vn -0.0630 0.7736 0.6306
vn 0.4462 0.7912 -0.4183
vn 0.0663 0.7480 -0.6604
vn -0.4943 0.7877 0.3675
vn -0.4387 0.8472 -0.2997
vn -0.8452 0.5327 0.0434
vn -0.0187 0.3156 0.9487
vn 0.4813 -0.4792 0.7339
vn 0.6968 0.7133 -0.0752
vn 0.9319 -0.3581 0.0581
vn -0.3972 -0.5920 0.7013
# 60 vertex normals

vt 0.9940 0.1384 0.0000
vt 0.9917 0.4982 0.0000
vt 0.6333 0.4944 0.0000
vt 0.6342 0.1353 0.0000
vt 0.4690 0.7727 0.0000
vt 0.2000 0.5040 0.0000
vt 0.1970 0.2357 0.0000
vt 0.4616 0.2729 0.0000
vt 0.4268 0.2365 0.0000
vt 0.4842 0.2086 0.0000
vt 0.4929 0.9153 0.0000
vt 0.4578 0.9539 0.0000
vt 0.1878 0.7906 0.0000
vt 0.0167 0.5126 0.0000
vt 0.0609 0.8718 0.0000
vt 0.1631 0.0351 0.0000
vt 0.9862 0.8596 0.0000
vt 0.6345 0.8082 0.0000
vt 0.0088 0.1513 0.0000
vt 0.6644 0.8554 0.0000
vt 0.6056 0.8374 0.0000
vt 0.1417 0.9331 0.0000
vt 0.5234 0.0476 0.0000
# 23 texture coords

g Gold_09
s 1
f 1/1/1 2/2/2 3/3/3 4/4/4 
f 5/5/5 6/6/6 7/7/7 8/8/8 
f 9/9/9 8/8/8 7/7/7 
f 4/4/4 3/3/3 10/10/10 
f 5/5/5 11/11/11 12/12/12 13/13/13 
f 2/14/2 6/6/6 13/13/13 14/15/14 
f 10/10/10 9/9/9 7/7/7 1/16/1 
f 2/2/2 14/17/14 3/3/3 
f 5/5/5 13/13/13 6/6/6 
f 3/3/3 15/18/15 5/5/5 
f 2/14/2 1/19/1 7/7/7 6/6/6 
f 12/20/12 11/21/11 15/18/15 
f 12/12/12 14/22/14 13/13/13 
f 15/18/15 11/21/11 5/5/5 
f 12/20/12 15/18/15 3/3/3 14/17/14 
f 10/10/10 8/8/8 9/9/9 
f 5/5/5 8/8/8 10/10/10 3/3/3 
f 1/16/1 4/23/4 10/10/10 
f 16/1/16 17/2/17 18/3/18 19/4/19 
f 20/5/20 21/6/21 22/7/22 23/8/23 
f 24/9/24 23/8/23 22/7/22 
f 19/4/19 18/3/18 25/10/25 
f 20/5/20 26/11/26 27/12/27 28/13/28 
f 17/14/17 21/6/21 28/13/28 29/15/29 
f 25/10/25 24/9/24 22/7/22 16/16/16 
f 17/2/17 29/17/29 18/3/18 
f 20/5/20 28/13/28 21/6/21 
f 18/3/18 30/18/30 20/5/20 
f 17/14/17 16/19/16 22/7/22 21/6/21 
f 27/20/27 26/21/26 30/18/30 
f 27/12/27 29/22/29 28/13/28 
f 30/18/30 26/21/26 20/5/20 
f 27/20/27 30/18/30 18/3/18 29/17/29 
f 25/10/25 23/8/23 24/9/24 
f 20/5/20 23/8/23 25/10/25 18/3/18 
f 16/16/16 19/23/19 25/10/25 
f 31/1/16 32/2/17 33/3/18 34/4/19 
f 35/5/20 36/6/21 37/7/22 38/8/23 
f 39/9/24 38/8/23 37/7/22 
f 34/4/19 33/3/18 40/10/25 
f 35/5/20 41/11/26 42/12/27 43/13/28 
f 32/14/17 36/6/21 43/13/28 44/15/29 
f 40/10/25 39/9/24 37/7/22 31/16/16 
f 32/2/17 44/17/29 33/3/18 
f 35/5/20 43/13/28 36/6/21 
f 33/3/18 45/18/30 35/5/20 
f 32/14/17 31/19/16 37/7/22 36/6/21 
f 42/20/27 41/21/26 45/18/30 
f 42/12/27 44/22/29 43/13/28 
f 45/18/30 41/21/26 35/5/20 
f 42/20/27 45/18/30 33/3/18 44/17/29 
f 40/10/25 38/8/23 39/9/24 
f 35/5/20 38/8/23 40/10/25 33/3/18 
f 31/16/16 34/23/19 40/10/25 
f 46/1/31 47/4/32 48/3/33 49/2/34 
f 50/7/35 51/6/36 52/5/37 53/8/38 
f 54/9/39 50/7/35 53/8/38 
f 47/4/32 55/10/40 48/3/33 
f 52/5/37 56/13/41 57/12/42 58/11/43 
f 49/14/34 59/15/44 56/13/41 51/6/36 
f 55/10/40 46/16/31 50/7/35 54/9/39 
f 49/2/34 48/3/33 59/17/44 
f 52/5/37 51/6/36 56/13/41 
f 48/3/33 52/5/37 60/18/45 
f 49/14/34 51/6/36 50/7/35 46/19/31 
f 57/20/42 60/18/45 58/21/43 
f 57/12/42 56/13/41 59/22/44 
f 60/18/45 52/5/37 58/21/43 
f 57/20/42 59/17/44 48/3/33 60/18/45 
f 55/10/40 54/9/39 53/8/38 
f 52/5/37 48/3/33 55/10/40 53/8/38 
f 46/16/31 55/10/40 47/23/32 
f 61/1/46 62/2/47 63/3/48 64/4/49 
f 65/5/50 66/6/51 67/7/52 68/8/53 
f 69/9/54 68/8/53 67/7/52 
f 64/4/49 63/3/48 70/10/55 
f 65/5/50 71/11/56 72/12/57 73/13/58 
f 62/14/47 66/6/51 73/13/58 74/15/59 
f 70/10/55 69/9/54 67/7/52 61/16/46 
f 62/2/47 74/17/59 63/3/48 
f 65/5/50 73/13/58 66/6/51 
f 63/3/48 75/18/60 65/5/50 
f 62/14/47 61/19/46 67/7/52 66/6/51 
f 72/20/57 71/21/56 75/18/60 
f 72/12/57 74/22/59 73/13/58 
f 75/18/60 71/21/56 65/5/50 
f 72/20/57 75/18/60 63/3/48 74/17/59 
f 70/10/55 68/8/53 69/9/54 
f 65/5/50 68/8/53 70/10/55 63/3/48 
f 61/16/46 64/23/49 70/10/55 
# 40 polygons - 50 triangles

