{
    "asset" : {
        "generator" : "Khronos glTF Blender I/O v1.5.17",
        "version" : "2.0"
    },
    "scene" : 0,
    "scenes" : [
        {
            "name" : "Scene",
            "nodes" : [
                0
            ]
        }
    ],
    "nodes" : [
        {
            "mesh" : 0,
            "name" : "Skala-Stone"
        }
    ],
    "materials" : [
        {
            "doubleSided" : true,
            "name" : "skala-low",
            "normalTexture" : {
                "index" : 0
            },
            "pbrMetallicRoughness" : {
                "baseColorTexture" : {
                    "index" : 1
                },
                "metallicFactor" : 0,
                "roughnessFactor" : 0.5
            }
        }
    ],
    "meshes" : [
        {
            "name" : "skala-low",
            "primitives" : [
                {
                    "attributes" : {
                        "POSITION" : 0,
                        "NORMAL" : 1,
                        "TEXCOORD_0" : 2
                    },
                    "indices" : 3,
                    "material" : 0
                }
            ]
        }
    ],
    "textures" : [
        {
            "sampler" : 0,
            "source" : 0
        },
        {
            "sampler" : 0,
            "source" : 1
        }
    ],
    "images" : [
        {
            "mimeType" : "image/jpeg",
            "name" : "skala-low-normal",
            "uri" : "skala-low-normal.jpg"
        },
        {
            "mimeType" : "image/jpeg",
            "name" : "skala-low-diffuse",
            "uri" : "skala-low-diffuse.jpg"
        }
    ],
    "accessors" : [
        {
            "bufferView" : 0,
            "componentType" : 5126,
            "count" : 149946,
            "max" : [
                1.956649899482727,
                1.9779335260391235,
                2.251922607421875
            ],
            "min" : [
                -1.6947221755981445,
                -1.3759334087371826,
                -2.237849473953247
            ],
            "type" : "VEC3"
        },
        {
            "bufferView" : 1,
            "componentType" : 5126,
            "count" : 149946,
            "type" : "VEC3"
        },
        {
            "bufferView" : 2,
            "componentType" : 5126,
            "count" : 149946,
            "type" : "VEC2"
        },
        {
            "bufferView" : 3,
            "componentType" : 5125,
            "count" : 149946,
            "type" : "SCALAR"
        }
    ],
    "bufferViews" : [
        {
            "buffer" : 0,
            "byteLength" : 1799352,
            "byteOffset" : 0
        },
        {
            "buffer" : 0,
            "byteLength" : 1799352,
            "byteOffset" : 1799352
        },
        {
            "buffer" : 0,
            "byteLength" : 1199568,
            "byteOffset" : 3598704
        },
        {
            "buffer" : 0,
            "byteLength" : 599784,
            "byteOffset" : 4798272
        }
    ],
    "samplers" : [
        {
            "magFilter" : 9729,
            "minFilter" : 9987
        }
    ],
    "buffers" : [
        {
            "byteLength" : 5398056,
            "uri" : "Skala-Stone.bin"
        }
    ]
}
