{
  "accessors": [
    {
      "bufferView": 2,
      "componentType": 5126,
      "count": 326,
      "max": [
        0.74554413557052612,
        0.72621172666549683,
        1.5611572265625
      ],
      "min": [
        -0.74420803785324097,
        -0.74929720163345337,
        0.024337712675333023
      ],
      "type": "VEC3"
    },
    {
      "bufferView": 2,
      "byteOffset": 3912,
      "componentType": 5126,
      "count": 326,
      "max": [
        0.99946105480194092,
        0.99994224309921265,
        0.99992126226425171
      ],
      "min": [
        -0.99861729145050049,
        -0.99944776296615601,
        -1
      ],
      "type": "VEC3"
    },
    {
      "bufferView": 3,
      "componentType": 5126,
      "count": 326,
      "max": [
        0.91723030805587769,
        0.92154663801193237,
        0.99904626607894897,
        1
      ],
      "min": [
        -0.96064656972885132,
        -0.98892378807067871,
        -0.99990004301071167,
        -1
      ],
      "type": "VEC4"
    },
    {
      "bufferView": 1,
      "componentType": 5126,
      "count": 326,
      "max": [
        0.8681565523147583,
        0.97480642795562744
      ],
      "min": [
        0.025193691253662109,
        0.040755212306976318
      ],
      "type": "VEC2"
    },
    {
      "bufferView": 1,
      "byteOffset": 2608,
      "componentType": 5126,
      "count": 326,
      "max": [
        0.8681565523147583,
        0.97480642795562744
      ],
      "min": [
        0.025193691253662109,
        0.040755212306976318
      ],
      "type": "VEC2"
    },
    {
      "bufferView": 1,
      "byteOffset": 5216,
      "componentType": 5126,
      "count": 326,
      "max": [
        0.8681565523147583,
        0.97480642795562744
      ],
      "min": [
        0.025193691253662109,
        0.040755212306976318
      ],
      "type": "VEC2"
    },
    {
      "bufferView": 0,
      "componentType": 5125,
      "count": 1410,
      "max": [
        325
      ],
      "min": [
        0
      ],
      "type": "SCALAR"
    }
  ],
  "asset": {
    "extras": {
      "author": "RPSebb (https://sketchfab.com/RPSebb)",
      "license": "CC-BY-4.0 (http://creativecommons.org/licenses/by/4.0/)",
      "source": "https://sketchfab.com/3d-models/red-apple-7a179f2b4837457eafa66c2f7094d280",
      "title": "Red Apple"
    },
    "generator": "Sketchfab-7.32.0",
    "version": "2.0"
  },
  "bufferViews": [
    {
      "buffer": 0,
      "byteLength": 5640,
      "byteOffset": 0,
      "name": "floatBufferViews",
      "target": 34963
    },
    {
      "buffer": 0,
      "byteLength": 7824,
      "byteOffset": 5640,
      "byteStride": 8,
      "name": "floatBufferViews",
      "target": 34962
    },
    {
      "buffer": 0,
      "byteLength": 7824,
      "byteOffset": 13464,
      "byteStride": 12,
      "name": "floatBufferViews",
      "target": 34962
    },
    {
      "buffer": 0,
      "byteLength": 5216,
      "byteOffset": 21288,
      "byteStride": 16,
      "name": "floatBufferViews",
      "target": 34962
    }
  ],
  "buffers": [
    {
      "byteLength": 26504,
      "uri": "scene.bin"
    }
  ],
  "images": [
    {
      "uri": "textures/Apple_Baked_baseColor.png"
    },
    {
      "uri": "textures/Apple_Baked_metallicRoughness.png"
    },
    {
      "uri": "textures/Apple_Baked_normal.png"
    }
  ],
  "materials": [
    {
      "doubleSided": true,
      "name": "Apple_Baked",
      "normalTexture": {
        "index": 2,
        "scale": 1,
        "texCoord": 0
      },
      "pbrMetallicRoughness": {
        "baseColorFactor": [
          1,
          1,
          1,
          1
        ],
        "baseColorTexture": {
          "index": 0,
          "texCoord": 0
        },
        "metallicFactor": 0,
        "metallicRoughnessTexture": {
          "index": 1,
          "texCoord": 0
        },
        "roughnessFactor": 1
      }
    }
  ],
  "meshes": [
    {
      "name": "Apple Cut Low.001_Apple Baked_0",
      "primitives": [
        {
          "attributes": {
            "NORMAL": 1,
            "POSITION": 0,
            "TANGENT": 2,
            "TEXCOORD_0": 3,
            "TEXCOORD_1": 4,
            "TEXCOORD_2": 5
          },
          "indices": 6,
          "material": 0,
          "mode": 4
        }
      ]
    }
  ],
  "nodes": [
    {
      "children": [
        1
      ],
      "name": "RootNode (gltf orientation matrix)",
      "rotation": [
        -0.70710678118654746,
        -0,
        -0,
        0.70710678118654757
      ]
    },
    {
      "children": [
        2
      ],
      "name": "RootNode (model correction matrix)"
    },
    {
      "children": [
        3
      ],
      "matrix": [
        1,
        0,
        0,
        0,
        0,
        0,
        1,
        0,
        0,
        -1,
        0,
        0,
        0,
        0,
        0,
        1
      ],
      "name": "6d82c29b629b416b9e01725c073548a7.fbx"
    },
    {
      "children": [
        4
      ],
      "name": "RootNode"
    },
    {
      "children": [
        5
      ],
      "matrix": [
        -0.999999999999996,
        -8.742277980456488e-08,
        0,
        0,
        -1.4242978711041864e-14,
        1.6292067994694293e-07,
        0.99999999999998657,
        0,
        -8.7422779804563715e-08,
        0.99999999999998279,
        -1.6292067983592062e-07,
        0,
        0,
        0,
        0,
        1
      ],
      "name": "Apple Cut Low.001"
    },
    {
      "mesh": 0,
      "name": "Apple Cut Low.001_Apple Baked_0"
    }
  ],
  "samplers": [
    {
      "magFilter": 9729,
      "minFilter": 9987,
      "wrapS": 10497,
      "wrapT": 10497
    }
  ],
  "scene": 0,
  "scenes": [
    {
      "name": "OSG_Scene",
      "nodes": [
        0
      ]
    }
  ],
  "textures": [
    {
      "sampler": 0,
      "source": 0
    },
    {
      "sampler": 0,
      "source": 1
    },
    {
      "sampler": 0,
      "source": 2
    }
  ]
}

