{"asset":{"version":"2.0","generator":"Mesh@Cocos glTF exporter for 3ds max v1.0"},"scene":0,"scenes":[{"nodes":[0]}],"nodes":[{"name":"cocosfinish_01","mesh":0,"translation":[0.0,0.0,0.0],"rotation":[-0.0,-0.0,-0.0,1.0],"scale":[1.0,1.0,1.0]}],"meshes":[{"name":"cocosfinish_01","primitives":[{"attributes":{"POSITION":0,"NORMAL":1,"TEXCOORD_0":2,"JOINTS_0":3,"WEIGHTS_0":4},"indices":5,"mode":4}]}],"accessors":[{"name":"accessorPosition","bufferView":0,"componentType":5126,"count":5345,"type":"VEC3","max":[1.1280615329742432,4.430077075958252,0.6853569149971008],"min":[-1.1286969184875489,0.0004072114825248718,-0.9644851088523865]},{"name":"accessorNormal","bufferView":1,"componentType":5126,"count":5345,"type":"VEC3"},{"name":"accessorUV0","bufferView":2,"componentType":5126,"count":5345,"type":"VEC2"},{"name":"accessorJoints","bufferView":3,"componentType":5121,"count":5345,"type":"VEC4"},{"name":"accessorWeights","bufferView":4,"componentType":5126,"count":5345,"type":"VEC4"},{"name":"accessorIndices","bufferView":5,"componentType":5123,"count":17643,"type":"SCALAR"}],"bufferViews":[{"buffer":0,"name":"bufferViewPositionVec3F","byteLength":64140,"byteStride":12},{"buffer":0,"name":"bufferViewNormalVec3F","byteOffset":64140,"byteLength":64140,"byteStride":12},{"buffer":0,"name":"bufferViewUV0Vec2F","byteOffset":128280,"byteLength":42760,"byteStride":8},{"buffer":0,"name":"bufferViewJointsVec4UI8","byteOffset":171040,"byteLength":21380,"byteStride":4},{"buffer":0,"name":"bufferViewWeightsVec4F","byteOffset":192420,"byteLength":85520,"byteStride":16},{"buffer":0,"name":"bufferViewIndexScalar","byteOffset":277940,"byteLength":35286}],"buffers":[{"name":"cocos_mesh","uri":"cocosfinish_01.bin","byteLength":313226}]}